<svg><metadata>Created by FontForge 20110222 at Wed Apr 9 11:47:35 2014 By Orthosie Webhosting Part of the digitally encoded machine readable outline data for producing the Typefaces provided is copyrighted (c) 2003 - 2006 Linotype GmbH, www.linotype.com. All rights reserved. This software is the property of Linotype GmbH, and may not be reproduced, modified, disclosed or transferred without the express written approval of Linotype GmbH. Copyright (c) 1988, 1990, 1993 Adobe Systems Incorporated. All Rights Reserved. Helvetica is a trademark of Heidelberger Druckmaschinen AG, exclusively licensed through Linotype GmbH, and may be registered in certain jurisdictions. This typeface is original artwork of Linotype Design Studio. The design may be protected in certain jurisdictions.</metadata><defs><font id="HelvNeueBoldforIBMRegular" horiz-adv-x="243"><font-face x-height="517" ascent="714" bbox="-174 -217 1070 988" cap-height="714" descent="-286" font-family="HelvNeueBoldforIBMRegular" font-stretch="normal" font-weight="700" panose-1="2 11 8 4 2 2 2 2 2 4" underline-position="-50" underline-thickness="50" unicode-range="U+000D-FB02" units-per-em="1000"/><glyph d="M59 0v714h157v-714h-157zM769 714v-489q0 -242 -238 -242q-98 0 -166.5 55.5t-68.5 165.5v62h142v-32q0 -58 19.5 -88.5t71.5 -30.5q29 0 47.5 10t25.5 30.5t8.5 35.5t1.5 41v482h157z" glyph-name="IJ" horiz-adv-x="828" unicode="IJ"/><glyph d="M192 714v-117h-142v117h142zM50 0v517h142v-517h-142zM433 714v-117h-142v117h142zM205 -178v117q11 -4 31 -4q55 0 55 46v536h142v-543q0 -83 -39 -119.5t-143 -36.5q-26 0 -46 4z" glyph-name="ij" horiz-adv-x="494" unicode="ij"/><glyph d="M58 0v517h135v-72h3q26 42 68.5 64t89.5 22q107 0 148 -54t41 -159v-318h-142v292q0 65 -21 96t-70 31q-58 0 -84 -35t-26 -113v-271h-142zM-20 714v93h145v-73q0 -58 -34 -76t-101 -18v37q48 4 57 37h-67z" glyph-name="napostrophe" horiz-adv-x="589" unicode="&quot;n"/><glyph d="M77 0v422h-85v95h85v40q0 71 44.5 114t128.5 43q14 0 41 -2t34 -2v-106q-26 3 -52 3q-29 0 -41.5 -13.5t-12.5 -45.5v-31h98v-95h-98v-422h-142zM403 0v517h142v-517h-142zM545 714v-117h-142v117h142z" glyph-name="fi" horiz-adv-x="595" unicode="fi"/><glyph d="M77 0v422h-85v95h85v40q0 71 44.5 114t128.5 43q14 0 41 -2t34 -2v-106q-26 3 -52 3q-29 0 -41.5 -13.5t-12.5 -45.5v-31h98v-95h-98v-422h-142zM403 0v714h142v-714h-142z" glyph-name="fl" horiz-adv-x="595" unicode="fl"/><glyph d="M270 117h-56v67h56v-67zM263 234h-46l-2 17q0 56 13 81q15 28 46 59q31 29 40.5 46t9.5 37q0 36 -22.5 60.5t-53.5 24.5q-71 0 -82 -95l-50 8q7 69 43 103t92 34q54 0 89 -36t35 -95q0 -34 -13 -60t-50 -60q-37 -33 -43 -52q-6 -20 -6 -72zM42 50h412v617h-412v-617z M-8 718h512v-718h-512v718z" glyph-name=".notdef" horiz-adv-x="496"/><glyph glyph-name=".null" horiz-adv-x="500"/><glyph glyph-name=".null" horiz-adv-x="500"/><glyph glyph-name="nonmarkingreturn" horiz-adv-x="333"/><glyph glyph-name="CR" horiz-adv-x="0"/><glyph glyph-name="space" horiz-adv-x="238"/><glyph d="M53 0v154h157v-154h-157zM205 714v-192l-39 -308h-71l-38 308v192h148z" glyph-name="exclam" horiz-adv-x="262" unicode="!"/><glyph d="M77 393v321h107v-321h-107zM263 393v321h107v-321h-107z" glyph-name="quotedbl" horiz-adv-x="447" unicode="&quot;"/><glyph d="M331 412h-96l-18 -124h97zM80 0l28 198h-83v90h95l18 124h-83v90h95l28 198h97l-28 -198h97l27 198h97l-27 -198h74v-90h-87l-17 -124h74v-90h-87l-27 -198h-97l27 198h-96l-28 -198h-97z" glyph-name="numbersign" horiz-adv-x="540" unicode="#"/><glyph d="M-9 232h142q-1 -54 29 -88.5t78 -43.5v209q-8 3 -32 9q-44 11 -74.5 24t-62 35t-47.5 57t-16 83q0 97 67 152t165 62v77h59v-77q97 -11 158 -63t67 -150h-142q-1 40 -25 68t-58 28v-177q32 -8 51 -13q56 -15 95.5 -39t59.5 -46t30.5 -53t12 -49t1.5 -45q0 -19 -6.5 -42.5 t-24.5 -52t-44.5 -52t-72 -41t-102.5 -21.5v-85h-59v85q-227 17 -249 249zM299 292v-192q43 4 75.5 29t32.5 69q0 38 -23.5 58t-84.5 36zM240 451v163q-37 0 -63.5 -21.5t-26.5 -61.5q0 -33 20.5 -51t69.5 -29z" glyph-name="dollar" horiz-adv-x="540" unicode="$"/><glyph d="M685 182q0 -19 0.5 -30t4 -30.5t9.5 -31t19 -20.5t31 -9q66 0 66 120t-62 120q-68 0 -68 -119zM583 183q0 86 43 139.5t127 53.5q164 0 164 -197q0 -86 -42.5 -139.5t-126.5 -53.5q-87 0 -126 54t-39 143zM246 -22l414 744h85l-412 -744h-87zM169 514q0 -18 0.5 -29 t4 -29.5t9.5 -29t19 -19t31 -8.5q66 0 66 114q0 126 -62 126q-68 0 -68 -125zM67 516q0 87 43 142.5t127 55.5q87 0 125.5 -55.5t38.5 -146.5q0 -86 -42.5 -137t-126.5 -51q-165 0 -165 192z" glyph-name="percent" horiz-adv-x="984" unicode="%"/><glyph d="M514 0l-58 71q-87 -85 -201 -85q-100 0 -165.5 57.5t-65.5 156.5q0 70 45 122t115 85q-34 41 -51 75t-17 77q0 72 55.5 117.5t130.5 45.5q85 0 140.5 -45t55.5 -126q0 -109 -127 -178l92 -113q19 34 26 85h123q-11 -102 -69 -176l145 -169h-174zM381 166l-122 149 q-43 -18 -71.5 -48t-28.5 -70q0 -38 31 -66t71 -28q64 0 120 63zM374 559q0 28 -19.5 48t-45.5 20q-27 0 -45.5 -18t-18.5 -45q0 -9 1.5 -18t5.5 -17.5t6.5 -14.5t9.5 -15.5t10 -13.5t12 -14.5t11 -13.5q36 23 54.5 45t18.5 57z" glyph-name="ampersand" horiz-adv-x="669" unicode="&amp;"/><glyph d="M78 393v321h107v-321h-107z" glyph-name="quotesingle" horiz-adv-x="262" unicode="'"/><glyph d="M176 731h119q-109 -205 -109 -453q0 -251 108 -460h-118q-132 218 -132 450q0 118 34.5 244.5t97.5 218.5z" glyph-name="parenleft" horiz-adv-x="280" unicode="("/><glyph d="M104 -182h-119q109 205 109 452q0 252 -108 461h118q132 -218 132 -451q0 -118 -34.5 -245t-97.5 -217z" glyph-name="parenright" horiz-adv-x="280" unicode=")"/><glyph d="M234 714v-125l116 44l27 -77l-118 -39l74 -98l-66 -49l-74 103l-70 -103l-67 49l74 98l-116 39l27 77l113 -44v125h80z" glyph-name="asterisk" horiz-adv-x="391" unicode="*"/><glyph d="M346 505v-199h199v-107h-199v-199h-107v199h-199v107h199v199h107z" glyph-name="plus" horiz-adv-x="584" unicode="+"/><glyph d="M37 0v154h157v-154q0 -66 -44.5 -111t-111.5 -55v72q31 6 52 33.5t19 60.5h-72z" glyph-name="comma" horiz-adv-x="231" unicode=","/><glyph d="M45 212v122h301v-122h-301z" glyph-name="hyphen" horiz-adv-x="391" unicode="-"/><glyph d="M37 0v154h157v-154h-157z" glyph-name="period" horiz-adv-x="231" unicode="."/><glyph d="M-19 -17l279 748h114l-279 -748h-114z" glyph-name="slash" horiz-adv-x="355" unicode="/"/><glyph d="M179 353q0 -35 0.5 -57.5t6.5 -63.5t17 -65.5t34.5 -44t55.5 -19.5q33 0 56.5 19.5t34.5 44t17 65.5t7 63.5t1 57.5q0 23 -0.5 37t-2.5 42.5t-6 47.5t-12.5 43t-20.5 38.5t-31 25t-43 10.5q-27 0 -48 -12t-33 -36t-19 -45.5t-10 -55.5t-3.5 -50.5t-0.5 -44.5zM37 353 q0 192 70.5 276.5t185.5 84.5q55 0 100 -18.5t81.5 -59t56.5 -112.5t20 -171q0 -196 -71 -281.5t-187 -85.5q-115 0 -185.5 85.5t-70.5 281.5z" glyph-name="zero" horiz-adv-x="588" unicode="0"/><glyph d="M358 700v-700h-142v454h-176v107q82 -2 138 31t67 108h113z" glyph-name="one" horiz-adv-x="427" unicode="1"/><glyph d="M177 431h-136q-4 124 63.5 203.5t190.5 79.5q100 0 170 -60t70 -159q0 -60 -23.5 -105.5t-63 -77t-81 -57t-87 -60.5t-72.5 -73h331v-122h-514q0 40 7 73.5t24.5 62.5t32.5 49.5t47 46.5t50.5 39.5t59.5 41.5q6 4 37 25t42.5 30.5t31.5 29.5t28 40.5t8 45.5 q0 50 -29.5 79t-75.5 29q-58 0 -84.5 -48t-26.5 -113z" glyph-name="two" horiz-adv-x="564" unicode="2"/><glyph d="M246 317v100q26 -2 49.5 0.5t47 11t38 28t14.5 47.5q0 43 -29 68t-70 25q-52 0 -80.5 -34.5t-27.5 -90.5h-135q4 109 69 175.5t173 66.5q91 0 163 -53t72 -141q0 -52 -25.5 -90.5t-72.5 -52.5v-2q57 -13 90.5 -56t33.5 -103q0 -106 -76 -168t-184 -62q-120 0 -191 68 t-69 187h135q2 -61 33 -99.5t90 -38.5q49 0 81.5 30.5t32.5 79.5q0 26 -6.5 44.5t-21 29.5t-26.5 17.5t-36 9t-35.5 3t-36.5 0.5z" glyph-name="three" horiz-adv-x="586" unicode="3"/><glyph d="M316 279v243h-3l-181 -243h184zM316 0v162h-296v130l304 408h127v-421h93v-117h-93v-162h-135z" glyph-name="four" horiz-adv-x="564" unicode="4"/><glyph d="M507 700v-117h-289l-28 -159l2 -2q54 54 137 54q100 0 158 -68t58 -170q0 -107 -77 -180.5t-183 -71.5q-108 0 -183 58.5t-77 163.5h142q5 -47 36.5 -76t78.5 -29q54 0 87.5 40t33.5 95q0 56 -32.5 93.5t-88.5 37.5q-37 0 -61 -13t-46 -43h-128l69 387h391z" glyph-name="five" horiz-adv-x="575" unicode="5"/><glyph d="M302 363q-54 0 -83.5 -37.5t-29.5 -92.5q0 -52 31 -91t82 -39q49 0 78 38.5t29 89.5q0 54 -27.5 93t-79.5 39zM539 520h-135q-7 37 -32.5 62t-61.5 25t-63 -22t-41.5 -56.5t-21.5 -68t-8 -66.5l2 -2q54 78 158 78q45 0 88 -19.5t73 -52.5q54 -63 54 -156 q0 -109 -68.5 -182.5t-176.5 -73.5q-76 0 -131 31t-83.5 84.5t-41.5 114t-13 132.5q0 68 15.5 130.5t47 116.5t86.5 86.5t126 32.5q92 0 153.5 -51t73.5 -143z" glyph-name="six" horiz-adv-x="581" unicode="6"/><glyph d="M473 700v-122q-104 -91 -165.5 -258.5t-63.5 -319.5h-152q12 154 73 300t162 268h-332v132h478z" glyph-name="seven" horiz-adv-x="468" unicode="7"/><glyph d="M193 510q0 -43 31 -67.5t76 -24.5q46 0 75.5 24t29.5 68q0 37 -23.5 67t-81.5 30q-45 0 -76 -26t-31 -71zM64 523q0 89 71.5 140t164.5 51q62 0 109.5 -19.5t73.5 -49.5t38.5 -60.5t12.5 -58.5q0 -53 -26.5 -91.5t-75.5 -55.5v-2q63 -14 97 -59.5t34 -111.5 q0 -71 -39 -122t-97 -74.5t-126 -23.5q-110 0 -188 56t-78 163q0 67 35 112t97 60v2q-50 14 -76.5 52.5t-26.5 91.5zM177 212q0 -53 36 -86t88 -33t86 33t34 85q0 49 -34.5 80.5t-85.5 31.5q-54 0 -89 -29.5t-35 -81.5z" glyph-name="eight" horiz-adv-x="598" unicode="8"/><glyph d="M279 337q54 0 83.5 37.5t29.5 92.5q0 52 -31 91t-82 39q-49 0 -78 -38.5t-29 -89.5q0 -54 28 -93t79 -39zM42 180h135q7 -37 32.5 -62t61.5 -25q37 0 64 21.5t41 57t20.5 67.5t8.5 67l-2 2q-54 -78 -158 -78q-45 0 -88 19.5t-73 52.5q-54 63 -54 156q0 109 68.5 182.5 t176.5 73.5q76 0 131 -31t83.5 -84.5t41.5 -114t13 -132.5q0 -68 -15.5 -130.5t-47 -116.5t-86.5 -86.5t-126 -32.5q-92 0 -153.5 51t-73.5 143z" glyph-name="nine" horiz-adv-x="581" unicode="9"/><glyph d="M210 508v-154h-157v154h157zM53 0v154h157v-154h-157z" glyph-name="colon" horiz-adv-x="262" unicode=":"/><glyph d="M210 508v-154h-157v154h157zM53 0v154h157v-154q0 -66 -44.5 -111t-111.5 -55v72q31 6 52 33.5t19 60.5h-72z" glyph-name="semicolon" horiz-adv-x="262" unicode=";"/><glyph d="M546 514v-115l-367 -146l367 -146v-115l-508 202v118z" glyph-name="less" horiz-adv-x="584" unicode="&lt;"/><glyph d="M545 199v-107h-505v107h505zM545 413v-107h-505v107h505z" glyph-name="equal" horiz-adv-x="584" unicode="="/><glyph d="M38 -8v115l367 146l-367 146v115l508 -202v-118z" glyph-name="greater" horiz-adv-x="584" unicode="&gt;"/><glyph d="M185 0v154h157v-154h-157zM171 484h-147q2 109 68 178t175 69q67 0 117.5 -19t78 -49.5t40.5 -62t13 -62.5q0 -53 -17 -90.5t-42.5 -58.5t-51 -38.5t-46 -41.5t-25.5 -57v-38h-135v45q4 48 22 83t41 54.5t45.5 36.5t37.5 39t14 52q0 90 -85 90q-51 0 -77 -36.5t-26 -93.5 z" glyph-name="question" horiz-adv-x="540" unicode="?"/><glyph d="M614 545l-63 -258q-8 -26 -8 -43q0 -23 17 -23q45 0 81.5 53t36.5 131q0 116 -76.5 181t-194.5 65q-127 0 -205 -83.5t-78 -212.5q0 -130 82.5 -211t212.5 -81q133 0 215 82h84q-51 -78 -131 -120t-174 -42q-161 0 -273 107.5t-112 266.5q0 157 111.5 265.5t268.5 108.5 q141 0 244.5 -85.5t103.5 -219.5q0 -72 -27.5 -131t-66.5 -91.5t-76.5 -50t-64.5 -17.5q-32 0 -51.5 16t-21.5 41h-2q-35 -58 -108 -58q-64 0 -110.5 50.5t-46.5 120.5q0 100 61.5 177.5t156.5 77.5q36 0 68.5 -17t48.5 -53l16 54h82zM283 319q0 -40 21.5 -64.5t56.5 -24.5 q51 0 87 48t36 103q0 36 -22.5 60.5t-54.5 24.5q-52 0 -88 -46.5t-36 -100.5z" glyph-name="at" horiz-adv-x="784" unicode="@"/><glyph d="M343 538l-93 -262h185l-90 262h-2zM-6 0l271 714h161l267 -714h-163l-54 159h-267l-56 -159h-159z" glyph-name="A" horiz-adv-x="687" unicode="A"/><glyph d="M216 592v-167h159q96 0 96 85q0 82 -108 82h-147zM59 0v714h336q228 0 228 -177q0 -101 -97 -149q65 -18 98 -65.5t33 -115.5q0 -102 -73 -154.5t-179 -52.5h-346zM216 318v-196h168q116 0 116 94q0 102 -113 102h-171z" glyph-name="B" horiz-adv-x="684" unicode="B"/><glyph d="M687 474h-152q-8 53 -53 89t-103 36q-67 0 -112 -36t-63.5 -89.5t-18.5 -119.5q0 -100 48 -169.5t146 -69.5q70 0 111.5 43t50.5 117h152q-12 -134 -97 -213t-217 -79q-161 0 -256 106t-95 265q0 163 95 270t256 107q121 0 207.5 -68.5t100.5 -188.5z" glyph-name="C" horiz-adv-x="712" unicode="C"/><glyph d="M216 582v-450h140q76 0 127 52t51 162q0 115 -47.5 175.5t-158.5 60.5h-112zM59 0v714h308q145 0 234.5 -91t89.5 -262q0 -162 -83 -261.5t-241 -99.5h-308z" glyph-name="D" horiz-adv-x="721" unicode="D"/><glyph d="M59 0v714h534v-132h-377v-153h346v-122h-346v-175h385v-132h-542z" glyph-name="E" horiz-adv-x="636" unicode="E"/><glyph d="M59 0v714h502v-132h-345v-165h299v-122h-299v-295h-157z" glyph-name="F" horiz-adv-x="581" unicode="F"/><glyph d="M591 0l-16 81q-76 -98 -196 -98q-161 0 -256 106t-95 265q0 163 95 270t256 107q116 0 202.5 -67.5t98.5 -184.5h-150q-14 59 -54 89.5t-97 30.5q-67 0 -112 -36t-63.5 -89.5t-18.5 -119.5q0 -100 48 -169.5t146 -69.5q156 0 170 154h-158v117h300v-386h-100z" glyph-name="G" horiz-adv-x="733" unicode="G"/><glyph d="M59 0v714h157v-274h289v274h157v-714h-157v308h-289v-308h-157z" glyph-name="H" horiz-adv-x="721" unicode="H"/><glyph d="M59 0v714h157v-714h-157z" glyph-name="I" horiz-adv-x="275" unicode="I"/><glyph d="M487 714v-489q0 -242 -238 -242q-98 0 -166.5 55.5t-68.5 165.5v62h142v-32q0 -58 19.5 -88.5t71.5 -30.5q29 0 47.5 10t25.5 30.5t8.5 35.5t1.5 41v482h157z" glyph-name="J" horiz-adv-x="546" unicode="J"/><glyph d="M59 0v714h157v-296l279 296h196l-279 -282l306 -432h-197l-215 321l-90 -91v-230h-157z" glyph-name="K" horiz-adv-x="712" unicode="K"/><glyph d="M59 0v714h157v-582h348v-132h-505z" glyph-name="L" horiz-adv-x="578" unicode="L"/><glyph d="M59 0v714h221l167 -491h2l158 491h221v-714h-147v506h-2l-175 -506h-121l-175 501h-2v-501h-147z" glyph-name="M" horiz-adv-x="887" unicode="M"/><glyph d="M59 0v714h156l298 -479h2v479h147v-714h-157l-297 478h-2v-478h-147z" glyph-name="N" horiz-adv-x="721" unicode="N"/><glyph d="M185 354q0 -100 48 -169.5t146 -69.5t146 69.5t48 169.5q0 66 -18.5 119.5t-63.5 89.5t-112 36t-112 -36t-63.5 -89.5t-18.5 -119.5zM28 354q0 163 95 270t256 107t256 -107t95 -270q0 -159 -95 -265t-256 -106t-256 106t-95 265z" glyph-name="O" horiz-adv-x="758" unicode="O"/><glyph d="M216 592v-214h122q64 0 101 22.5t37 84.5t-37 84.5t-101 22.5h-122zM59 0v714h322q125 0 186 -66t61 -163t-61 -163t-186 -66h-165v-256h-157z" glyph-name="P" horiz-adv-x="637" unicode="P"/><glyph d="M375 186l73 78l81 -74q44 59 44 164q0 66 -18.5 119.5t-63.5 89.5t-112 36t-112 -36t-63.5 -89.5t-18.5 -119.5q0 -100 48 -169.5t146 -69.5q53 0 63 10zM726 10l-73 -77l-101 92q-73 -42 -173 -42q-161 0 -256 106t-95 265q0 163 95 270t256 107t256 -107t95 -270 q0 -158 -93 -263z" glyph-name="Q" horiz-adv-x="758" unicode="Q"/><glyph d="M216 592v-201h172q108 0 108 102q0 99 -108 99h-172zM59 0v714h385q94 0 151.5 -57t57.5 -140q0 -134 -113 -179v-2q94 -26 104 -167q0 -2 2 -37.5t3.5 -51.5t8 -41t16.5 -39h-157q-8 20 -12 48.5t-7 66.5t-6 56q-8 58 -34.5 83t-84.5 25h-157v-279h-157z" glyph-name="R" horiz-adv-x="693" unicode="R"/><glyph d="M14 237h152q0 -67 44.5 -99.5t113.5 -32.5q33 0 61.5 6.5t53 27.5t24.5 55q0 19 -9.5 34t-21.5 24.5t-36.5 19t-42.5 14t-51 13t-51 13.5q-45 11 -78.5 24.5t-66.5 36.5t-50.5 59t-17.5 83q0 103 80 159.5t187 56.5q79 0 141 -22t103.5 -75.5t41.5 -132.5h-152 q-6 108 -141 108q-43 0 -75.5 -20t-32.5 -61q0 -39 35 -55.5t178 -52.5q212 -48 212 -208q0 -102 -77.5 -165.5t-219.5 -63.5q-129 0 -217.5 65t-86.5 189z" glyph-name="S" horiz-adv-x="629" unicode="S"/><glyph d="M228 0v582h-214v132h585v-132h-214v-582h-157z" glyph-name="T" horiz-adv-x="613" unicode="T"/><glyph d="M665 714v-444q0 -142 -79.5 -214.5t-225.5 -72.5q-147 0 -225.5 71.5t-78.5 215.5v444h157v-444q0 -71 30.5 -113t116.5 -42q82 0 115 36.5t33 118.5v444h157z" glyph-name="U" horiz-adv-x="721" unicode="U"/><glyph d="M630 714l-237 -714h-177l-232 714h162l159 -502h2l161 502h162z" glyph-name="V" horiz-adv-x="614" unicode="V"/><glyph d="M931 714l-192 -714h-156l-121 486h-2l-119 -486h-159l-189 714h157l113 -486h2l124 486h147l122 -492h2l117 492h154z" glyph-name="W" horiz-adv-x="924" unicode="W"/><glyph d="M-6 0l250 374l-230 340h182l140 -228l145 228h172l-229 -341l249 -373h-187l-156 247l-159 -247h-177z" glyph-name="X" horiz-adv-x="667" unicode="X"/><glyph d="M244 0v278l-263 436h177l167 -282l166 282h175l-265 -440v-274h-157z" glyph-name="Y" horiz-adv-x="647" unicode="Y"/><glyph d="M26 0v124l383 458h-353v132h562v-124l-383 -458h393v-132h-602z" glyph-name="Z" horiz-adv-x="652" unicode="Z"/><glyph d="M60 -182v913h264v-112h-122v-689h122v-112h-264z" glyph-name="bracketleft" horiz-adv-x="317" unicode="["/><glyph d="M95 731l279 -748h-114l-279 748h114z" glyph-name="backslash" horiz-adv-x="355" unicode="\"/><glyph d="M257 731v-913h-264v112h122v689h-122v112h264z" glyph-name="bracketright" horiz-adv-x="317" unicode="]"/><glyph d="M53 315l172 385h134l172 -385h-117l-122 275l-122 -275h-117z" glyph-name="asciicircum" horiz-adv-x="584" unicode="^"/><glyph d="M-8 -125v50h500v-50h-500z" glyph-name="underscore" horiz-adv-x="484" unicode="_"/><glyph d="M98 589l-154 142h157l96 -142h-99z" glyph-name="grave" unicode="`"/><glyph d="M182 358h-142q6 91 75 132t168 41q227 0 227 -147v-269q0 -86 18 -115h-144q-9 28 -10 50q-61 -64 -174 -64q-78 0 -127 39.5t-49 115.5q0 55 26.5 90t65 47t83.5 20t83 10.5t62.5 16.5t23.5 41q0 41 -24 55.5t-68 14.5q-87 0 -94 -78zM368 200v53q-8 -7 -23 -12.5 t-27.5 -7.5t-34.5 -5t-33 -5q-84 -15 -84 -76q0 -66 87 -66q115 0 115 119z" glyph-name="a" horiz-adv-x="558" unicode="a"/><glyph d="M429 258q0 71 -30.5 118.5t-90.5 47.5t-90.5 -47.5t-30.5 -118.5q0 -70 31 -117.5t90 -47.5t90 47.5t31 117.5zM50 0v714h142v-260h2q51 77 163 77q86 0 150 -70t64 -202t-64 -202.5t-150 -70.5q-126 0 -170 80h-2v-66h-135z" glyph-name="b" horiz-adv-x="599" unicode="b"/><glyph d="M537 335h-139q-14 89 -105 89q-62 0 -91.5 -50.5t-29.5 -117.5q0 -66 28.5 -114.5t89.5 -48.5q98 0 113 105h137q-14 -102 -79.5 -157t-169.5 -55q-116 0 -188.5 74t-72.5 191q0 124 70.5 202t193.5 78q98 0 167.5 -51t75.5 -145z" glyph-name="c" horiz-adv-x="558" unicode="c"/><glyph d="M413 260q0 71 -29 117.5t-93 46.5q-65 0 -95 -47t-30 -118q0 -68 31.5 -117t93.5 -49q65 0 93.5 47.5t28.5 119.5zM415 0v66h-2q-47 -80 -157 -80q-111 0 -171.5 80.5t-60.5 196.5q0 112 60.5 190t168.5 78q47 0 88.5 -20t64.5 -57h2v260h142v-714h-135z" glyph-name="d" horiz-adv-x="595" unicode="d"/><glyph d="M166 314h231q-10 56 -36.5 83t-76.5 27q-61 0 -88 -34.5t-30 -75.5zM539 224h-373q6 -131 127 -131q41 0 73 20.5t39 46.5h125q-57 -174 -242 -174q-121 0 -192.5 75.5t-71.5 196.5q0 118 73.5 195.5t190.5 77.5q126 0 193 -90t58 -217z" glyph-name="e" horiz-adv-x="567" unicode="e"/><glyph d="M77 0v422h-85v95h85v40q0 71 44.5 114t128.5 43q14 0 41 -2t34 -2v-106q-26 3 -52 3q-29 0 -41.5 -13.5t-12.5 -45.5v-31h98v-95h-98v-422h-142z" glyph-name="f" horiz-adv-x="322" unicode="f"/><glyph d="M284 122q58 0 89.5 41.5t31.5 101.5q0 70 -28.5 114.5t-92.5 44.5q-57 0 -86 -42t-29 -105q0 -41 10 -74t37 -57t68 -24zM540 517v-484q0 -30 -5 -57t-21.5 -60t-44.5 -56.5t-78.5 -39.5t-118.5 -16q-86 0 -154 42.5t-74 123.5h141q17 -71 106 -71q57 0 86 34.5t28 93.5 v68h-2q-22 -40 -63.5 -60t-91.5 -20q-111 0 -166 72.5t-55 187.5q0 106 59.5 181t162.5 75q106 0 154 -83h2v69h135z" glyph-name="g" horiz-adv-x="586" unicode="g"/><glyph d="M50 0v714h142v-269h3q26 42 67 64t84 22q107 0 148 -54t41 -159v-318h-142v292q0 65 -21 96t-70 31q-58 0 -84 -35t-26 -113v-271h-142z" glyph-name="h" horiz-adv-x="581" unicode="h"/><glyph d="M192 714v-117h-142v117h142zM50 0v517h142v-517h-142z" glyph-name="i" horiz-adv-x="242" unicode="i"/><glyph d="M201 714v-117h-142v117h142zM-27 -178v117q11 -4 31 -4q55 0 55 46v536h142v-543q0 -83 -39 -119.5t-143 -36.5q-26 0 -46 4z" glyph-name="j" horiz-adv-x="251" unicode="j"/><glyph d="M50 0v714h142v-383l179 186h168l-195 -190l217 -327h-172l-142 231l-55 -53v-178h-142z" glyph-name="k" horiz-adv-x="553" unicode="k"/><glyph d="M50 0v714h142v-714h-142z" glyph-name="l" horiz-adv-x="242" unicode="l"/><glyph d="M50 0v517h134v-70h2q59 84 158 84q113 0 151 -86q59 86 156 86q88 0 138.5 -44.5t50.5 -140.5v-346h-142v293q0 24 -1 40t-6 34t-14 28t-25.5 17t-40.5 7q-95 0 -95 -131v-288h-142v290v7q0 24 -0.5 36t-5 31.5t-13 29t-25.5 17.5t-42 8q-13 0 -27 -5t-31 -16.5 t-27.5 -37t-10.5 -60.5v-300h-142z" glyph-name="m" horiz-adv-x="890" unicode="m"/><glyph d="M46 0v517h135v-72h3q26 42 68.5 64t89.5 22q107 0 148 -54t41 -159v-318h-142v292q0 65 -21 96t-70 31q-58 0 -84 -35t-26 -113v-271h-142z" glyph-name="n" horiz-adv-x="577" unicode="n"/><glyph d="M169 258q0 -71 29.5 -118t95.5 -47q67 0 96.5 47t29.5 118t-29.5 118.5t-96.5 47.5q-66 0 -95.5 -47.5t-29.5 -118.5zM27 258q0 124 73 198.5t194 74.5q122 0 195 -74.5t73 -198.5q0 -123 -73 -197.5t-195 -74.5q-121 0 -194 74.5t-73 197.5z" glyph-name="o" horiz-adv-x="589" unicode="o"/><glyph d="M307 93q65 0 94 46.5t29 117.5q0 70 -30.5 118.5t-93.5 48.5q-65 0 -94 -48t-29 -119q0 -70 30 -117t94 -47zM46 -182v699h135v-66h2q50 80 154 80q115 0 175 -79.5t60 -198.5q0 -111 -59.5 -189t-167.5 -78q-101 0 -155 78h-2v-246h-142z" glyph-name="p" horiz-adv-x="595" unicode="p"/><glyph d="M166 258q0 -71 29 -118t94 -47q64 0 94 46t30 117q0 69 -29.5 118.5t-91.5 49.5q-65 0 -95.5 -47.5t-30.5 -118.5zM550 517v-699h-142v247h-2q-23 -40 -67.5 -59.5t-95.5 -19.5q-38 0 -74.5 14.5t-70 44.5t-54 84.5t-20.5 125.5q0 115 60.5 195.5t171.5 80.5 q112 0 157 -80h2v66h135z" glyph-name="q" horiz-adv-x="595" unicode="q"/><glyph d="M46 0v517h135v-96h2q20 49 66 79.5t99 30.5q14 0 31 -5v-132q-22 5 -51 5q-140 0 -140 -166v-233h-142z" glyph-name="r" horiz-adv-x="373" unicode="r"/><glyph d="M21 168h135q0 -43 32 -65t77 -22q36 0 64.5 16t28.5 50q0 30 -37 46t-124 34q-37 8 -61.5 17t-50.5 24.5t-39 39.5t-13 57q0 47 19 81t52.5 52t71 25.5t82.5 7.5q95 0 157.5 -38.5t70.5 -126.5h-135q-5 70 -97 70q-79 0 -79 -48q0 -11 4.5 -19.5t14 -15t19.5 -11t26.5 -9 t29 -7.5t33.5 -7.5t34 -7.5q77 -18 120.5 -49t43.5 -96q0 -94 -68 -137t-168 -43q-65 0 -116 16t-88 58.5t-39 107.5z" glyph-name="s" horiz-adv-x="521" unicode="s"/><glyph d="M226 672v-155h104v-95h-104v-256q0 -36 12 -48t48 -12q27 0 44 4v-111q-30 -5 -83 -5q-36 0 -63 5t-51 17.5t-36.5 37.5t-12.5 63v305h-86v95h86v155h142z" glyph-name="t" horiz-adv-x="357" unicode="t"/><glyph d="M531 517v-517h-135v72h-3q-26 -42 -68.5 -64t-89.5 -22q-107 0 -148 54t-41 159v318h142v-292q0 -65 21 -96t70 -31q58 0 84 35t26 113v271h142z" glyph-name="u" horiz-adv-x="577" unicode="u"/><glyph d="M507 517l-175 -517h-158l-177 517h149l109 -353h2l109 353h141z" glyph-name="v" horiz-adv-x="504" unicode="v"/><glyph d="M804 517l-163 -517h-146l-92 347h-2l-88 -347h-147l-164 517h150l95 -351h2l86 351h138l88 -350h2l95 350h146z" glyph-name="w" horiz-adv-x="806" unicode="w"/><glyph d="M-8 0l186 272l-170 245h162l91 -135l90 135h157l-170 -242l191 -275h-162l-108 163l-108 -163h-159z" glyph-name="x" horiz-adv-x="521" unicode="x"/><glyph d="M528 517l-216 -582q-23 -63 -64.5 -90t-113.5 -27q-39 0 -87 5v117q54 -6 83 -5q27 3 41 21.5t14 43.5q0 17 -6 32l-182 485h152l117 -354h2l113 354h147z" glyph-name="y" horiz-adv-x="525" unicode="y"/><glyph d="M17 0v107l269 303h-249v107h436v-107l-269 -303h288v-107h-475z" glyph-name="z" horiz-adv-x="504" unicode="z"/><glyph d="M325 731v-112h-54q-54 0 -54 -73v-152q0 -34 -11 -58.5t-28.5 -36.5t-31.5 -17t-28 -6v-3q33 -3 66 -29t33 -81v-160q0 -73 54 -73h54v-112h-127q-41 0 -82 36.5t-41 98.5v195q0 41 -30.5 62t-61.5 21v87q32 0 62 22.5t30 67.5v188q0 62 41 98.5t82 36.5h127z" glyph-name="braceleft" horiz-adv-x="317" unicode="{"/><glyph d="M50 -214v1000h107v-1000h-107z" glyph-name="bar" horiz-adv-x="207" unicode="|"/><glyph d="M-8 -182v112h54q54 0 54 73v160q0 55 32.5 81t66.5 29v3q-15 1 -29 6t-31.5 17t-28 36.5t-10.5 58.5v152q0 73 -54 73h-54v112h127q41 0 82 -36.5t41 -98.5v-188q0 -45 30 -67.5t62 -22.5v-87q-31 0 -61.5 -21t-30.5 -62v-195q0 -62 -41 -98.5t-82 -36.5h-127z" glyph-name="braceright" horiz-adv-x="317" unicode="}"/><glyph d="M485 344l40 -93q-27 -41 -55 -63.5t-70 -22.5q-45 0 -102 33q-59 35 -115 35q-51 0 -84 -72l-40 93q42 86 125 86q38 0 111 -32q7 -3 21.5 -9.5t23 -10t20 -8t20.5 -6.5t17 -2q19 0 37 13t25.5 23t25.5 36z" glyph-name="asciitilde" horiz-adv-x="584" unicode="~"/><glyph glyph-name="uni00A0" horiz-adv-x="278"/><glyph d="M57 -183v192l39 308h71l38 -308v-192h-148zM210 531v-154h-157v154h157z" glyph-name="exclamdown" horiz-adv-x="262" unicode="¡"/><glyph d="M252 -115v101q-106 6 -172.5 81t-66.5 183q0 117 63 194t176 87v85h59v-85q86 0 153 -55t71 -142h-139q-3 36 -27 61.5t-58 28.5v-331q36 6 61.5 38.5t25.5 71.5h139q-8 -94 -70 -151.5t-156 -65.5v-101h-59zM252 93v330q-50 -13 -73.5 -57t-23.5 -102q0 -140 97 -171z" glyph-name="cent" horiz-adv-x="540" unicode="¢"/><glyph d="M80 -17l-62 93q48 30 80.5 73t32.5 93q0 27 -19 67h-99v85h64q-45 56 -45 138q0 85 67.5 142t188.5 57q115 0 179 -65t64 -185h-135q-1 19 -2.5 29.5t-8 33t-17 35.5t-31.5 24t-50 11q-44 0 -71 -25t-27 -67q0 -19 1.5 -31.5t11 -37.5t28.5 -59h133v-85h-105q8 -23 8 -62 q0 -75 -82 -140l2 -2q37 23 68 23q20 0 79 -11q46 -12 78 -12q48 0 88 43l60 -101q-65 -64 -156 -64q-63 0 -109 18q-53 20 -99 20q-67 0 -115 -38z" glyph-name="sterling" horiz-adv-x="540" unicode="£"/><glyph d="M272 491q-60 0 -93.5 -41.5t-33.5 -100.5q0 -58 33.5 -99t92.5 -41t90.5 41.5t31.5 100.5q0 57 -32 98.5t-89 41.5zM12 149l57 58q-48 56 -48 142q0 96 48 144l-57 58l57 57l57 -56q54 46 146 46q85 0 137 -45l58 57l61 -61l-56 -55q45 -50 45 -143q0 -91 -46 -146 l55 -56l-55 -55l-57 58q-52 -50 -143 -50q-93 0 -147 49l-56 -58z" glyph-name="currency" horiz-adv-x="540" unicode="¤"/><glyph d="M351 0h-152v138h-157v95h157v46l-14 29h-143v95h95l-154 311h163l132 -311l129 311h162l-155 -311h95v-95h-143l-15 -29v-46h158v-95h-158v-138z" glyph-name="yen" horiz-adv-x="540" unicode="¥"/><glyph d="M157 661v-250h-107v250h107zM50 -89v250h107v-250h-107z" glyph-name="brokenbar" horiz-adv-x="207" unicode="¦"/><glyph d="M486 538h-124q0 38 -23 62t-62 24q-29 0 -52.5 -18t-23.5 -46q1 -30 36 -56t84.5 -48t99 -47t83.5 -66t34 -93q0 -50 -28 -89.5t-76 -56.5q55 -41 55 -118q0 -79 -65 -123.5t-148 -44.5q-102 0 -163.5 48t-61.5 146h124q4 -87 98 -87q32 0 53 17t21 49q1 32 -33.5 59 t-85.5 49t-102 47.5t-87.5 67.5t-36.5 97q0 108 107 146q-43 48 -43 101q0 80 63.5 126.5t145.5 46.5q91 0 151 -51.5t60 -141.5zM369 287l-165 93q-21 11 -27 10q-21 -2 -36 -23t-15 -44q0 -32 32 -49l180 -98q16 -7 30 -7q19 0 32.5 18.5t13.5 36.5q0 39 -45 63z" glyph-name="section" horiz-adv-x="540" unicode="§"/><glyph d="M-49 598v117h135v-117h-135zM157 598v117h135v-117h-135z" glyph-name="dieresis" unicode="¨"/><glyph d="M507 295h81q-12 -73 -62.5 -115.5t-119.5 -42.5q-96 0 -155.5 63.5t-59.5 158.5q0 98 57.5 161t155.5 63q71 0 121.5 -40.5t59.5 -114.5h-78q-8 35 -36 55t-67 20q-56 0 -86.5 -39t-30.5 -103q0 -60 33 -102t86 -42q42 0 69 21t32 57zM110 357q0 -127 81.5 -210.5 t200.5 -83.5q118 0 200 83.5t82 210.5t-82 210.5t-200 83.5q-119 0 -200.5 -83.5t-81.5 -210.5zM8 357q0 110 54 197t141 132t189 45t189 -45t141 -132t54 -197q0 -165 -113 -269.5t-271 -104.5t-271 104.5t-113 269.5z" glyph-name="copyright" horiz-adv-x="784" unicode="©"/><glyph d="M114 605h-102q16 109 156 109q150 0 150 -89v-166q0 -53 12 -75h-101q-6 20 -7 31q-37 -40 -108 -40q-50 0 -81 24.5t-31 75.5q0 35 18.5 56.5t40 28.5t55.5 12q11 2 33 4t31.5 3.5t21.5 5t16.5 9.5t4.5 16q0 24 -15.5 31.5t-44.5 7.5q-19 0 -33 -11t-16 -33zM222 515v20 q-7 -6 -17.5 -9t-28.5 -5.5t-21 -3.5q-25 -6 -38 -14.5t-13 -25.5q0 -37 45 -37q73 0 73 75z" glyph-name="ordfeminine" horiz-adv-x="328" unicode="ª"/><glyph d="M191 80l-157 125v135l157 123v-120l-90 -71l90 -72v-120zM394 80l-157 125v135l157 123v-120l-90 -71l90 -72v-120z" glyph-name="guillemotleft" horiz-adv-x="428" unicode="«"/><glyph d="M544 406v-307h-107v200h-397v107h504z" glyph-name="logicalnot" horiz-adv-x="584" unicode="¬"/><glyph d="M45 212v122h301v-122h-301z" glyph-name="uni00AD" horiz-adv-x="391" unicode="­"/><glyph d="M326 503v-110h74q41 0 61.5 11.5t20.5 46.5q0 52 -86 52h-70zM243 149v419h158q82 0 123 -29t41 -95q0 -103 -110 -112l112 -183h-87l-102 179h-52v-179h-83zM110 358q0 -127 81.5 -211t200.5 -84q118 0 200 84t82 211q0 126 -82 209.5t-200 83.5q-119 0 -200.5 -83.5 t-81.5 -209.5zM8 358q0 165 113 269t271 104t271 -104t113 -269q0 -166 -113 -270.5t-271 -104.5t-271 104.5t-113 270.5z" glyph-name="registered" horiz-adv-x="784" unicode="®"/><glyph d="M-65 619v75h373v-75h-373z" glyph-name="macron" unicode="¯"/><glyph d="M109 566q0 -36 25 -62t58 -26t58 26t25 62t-25 62t-58 26t-58 -26t-25 -62zM44 566q0 62 43 105t105 43t105 -43t43 -105t-43 -105t-105 -43t-105 43t-43 105z" glyph-name="degree" horiz-adv-x="384" unicode="°"/><glyph d="M40 0v107h505v-107h-505zM346 506v-131h199v-107h-199v-131h-107v131h-199v107h199v131h107z" glyph-name="plusminus" horiz-adv-x="584" unicode="±"/><glyph d="M122 540h-102q-1 80 45 127t136 47q67 0 111.5 -35.5t44.5 -99.5q0 -44 -24.5 -77t-56 -50t-71.5 -43.5t-61 -55.5h209v-80h-334q0 38 10 67.5t32.5 53.5t42 38t55.5 37q6 4 24.5 15.5t27 18t21 18t18 24t5.5 27.5q0 27 -17 44.5t-44 17.5q-38 0 -56.5 -29.5t-15.5 -64.5 z" glyph-name="twosuperior" horiz-adv-x="376" unicode="²"/><glyph d="M156 464v70q21 0 31.5 1t28.5 4.5t26.5 14t8.5 27.5q0 24 -18.5 38.5t-43.5 14.5q-31 0 -49.5 -20.5t-17.5 -51.5h-96q2 70 45 111t117 41q65 0 112 -32t47 -91q0 -31 -17 -54.5t-49 -31.5v-2q38 -7 59.5 -32.5t21.5 -61.5q0 -69 -49.5 -107t-123.5 -38q-83 0 -130 41.5 t-45 118.5h96q2 -35 21.5 -57.5t55.5 -22.5q31 0 52 18t21 45q0 20 -9 32.5t-27.5 17.5t-31.5 6t-36 1z" glyph-name="threesuperior" horiz-adv-x="376" unicode="³"/><glyph d="M299 731l-154 -142h-99l96 142h157z" glyph-name="acute" unicode="´"/><glyph d="M531 517v-517h-135v72h-3q-26 -40 -64 -63t-66 -23q-53 0 -75 24v-192h-142v699h142v-292q0 -65 21 -96t70 -31q58 0 84 35t26 113v271h142z" glyph-name="mu" horiz-adv-x="577" unicode="µ"/><glyph d="M213 -166v523q-104 0 -161.5 47t-57.5 128q0 182 240 182h293v-880h-102v800h-110v-800h-102z" glyph-name="paragraph" horiz-adv-x="604" unicode="¶"/><glyph d="M47 287q0 35 25.5 60t59.5 25t59 -25t25 -60q0 -33 -25 -58.5t-58 -25.5q-35 0 -60.5 25t-25.5 59z" glyph-name="periodcentered" horiz-adv-x="262" unicode="·"/><glyph d="M4 -195l21 48q42 -18 84 -18q40 0 40 34q0 32 -40 32q-22 0 -40 -7l-21 24l59 82h49l-39 -52l1 -2q17 7 35 7q37 0 64.5 -18t27.5 -52q0 -54 -33.5 -77t-83.5 -23q-64 0 -124 22z" glyph-name="cedilla" unicode="¸"/><glyph d="M281 705v-432h-102v274h-110v75q52 -2 87 18t41 65h84z" glyph-name="onesuperior" horiz-adv-x="376" unicode="¹"/><glyph d="M111 544q0 -37 16.5 -65.5t47.5 -28.5q32 0 48.5 28.5t16.5 65.5q0 38 -16.5 66.5t-48.5 28.5q-31 0 -47.5 -28.5t-16.5 -66.5zM4 544q0 78 46.5 124t124.5 46t125 -46t47 -124t-46.5 -123.5t-125.5 -45.5q-78 0 -124.5 45.5t-46.5 123.5z" glyph-name="ordmasculine" horiz-adv-x="351" unicode="º"/><glyph d="M34 463l157 -123v-135l-157 -125v120l90 72l-90 71v120zM237 463l157 -123v-135l-157 -125v120l90 72l-90 71v120z" glyph-name="guillemotright" horiz-adv-x="428" unicode="»"/><glyph d="M681 169v144h-2l-114 -144h116zM681 0v89h-192v93l188 238h100v-251h57v-80h-57v-89h-96zM228 705v-432h-102v274h-110v75q52 -2 87 18t41 65h84zM144 -22l414 744h85l-412 -744h-87z" glyph-name="onequarter" horiz-adv-x="876" unicode="¼"/><glyph d="M603 267h-102q-1 80 45 127t136 47q67 0 111.5 -35.5t44.5 -99.5q0 -44 -24.5 -77t-56 -50t-71.5 -43.5t-61 -55.5h209v-80h-334q0 38 10 67.5t32.5 53.5t42 38t55.5 37q6 4 24.5 15.5t27 18t21 18t18 24t5.5 27.5q0 27 -17 44.5t-44 17.5q-38 0 -56.5 -29.5t-15.5 -64.5 zM228 705v-432h-102v274h-110v75q52 -2 87 18t41 65h84zM144 -22l414 744h85l-412 -744h-87z" glyph-name="onehalf" horiz-adv-x="873" unicode="½"/><glyph d="M701 169v144h-2l-114 -144h116zM701 0v89h-192v93l188 238h100v-251h57v-80h-57v-89h-96zM173 464v70q21 0 31.5 1t28.5 4.5t26.5 14t8.5 27.5q0 24 -18.5 38.5t-43.5 14.5q-31 0 -49.5 -20.5t-17.5 -51.5h-96q2 70 45 111t117 41q65 0 112 -32t47 -91q0 -31 -17 -54.5 t-49 -31.5v-2q38 -7 59.5 -32.5t21.5 -61.5q0 -69 -49.5 -107t-123.5 -38q-83 0 -130 41.5t-45 118.5h96q2 -35 21.5 -57.5t55.5 -22.5q31 0 52 18t21 45q0 20 -9 32.5t-27.5 17.5t-31.5 6t-36 1zM231 -22l414 744h85l-412 -744h-87z" glyph-name="threequarters" horiz-adv-x="873" unicode="¾"/><glyph d="M355 531v-154h-157v154h157zM367 51h147q-2 -109 -68 -178t-173 -69q-67 0 -117.5 19t-78 49.5t-40.5 62t-13 62.5q0 53 17 90.5t42.5 58.5t51 38.5t46 41.5t25.5 57v38h135v-45q-4 -48 -22 -83t-41 -54.5t-45.5 -36.5t-37.5 -39t-14 -52q0 -90 85 -90q49 0 75 36.5 t26 93.5z" glyph-name="questiondown" horiz-adv-x="540" unicode="¿"/><glyph d="M343 538l-93 -262h185l-90 262h-2zM-6 0l271 714h161l267 -714h-163l-54 159h-267l-56 -159h-159zM315 779l-154 142h157l96 -142h-99z" glyph-name="Agrave" horiz-adv-x="687" unicode="À"/><glyph d="M343 538l-93 -262h185l-90 262h-2zM-6 0l271 714h161l267 -714h-163l-54 159h-267l-56 -159h-159zM527 921l-154 -142h-99l96 142h157z" glyph-name="Aacute" horiz-adv-x="687" unicode="Á"/><glyph d="M343 538l-93 -262h185l-90 262h-2zM-6 0l271 714h161l267 -714h-163l-54 159h-267l-56 -159h-159zM172 779l111 142h130l110 -142h-117l-62 81l-64 -81h-108z" glyph-name="Acircumflex" horiz-adv-x="687" unicode="Â"/><glyph d="M343 538l-93 -262h185l-90 262h-2zM-6 0l271 714h161l267 -714h-163l-54 159h-267l-56 -159h-159zM460 911h69q-11 -53 -34 -82t-78 -32q-35 0 -81 17q-51 17 -68 17q-33 0 -45 -42h-61q6 48 37 84.5t80 37.5q29 0 72 -18q49 -17 65 -17q34 0 44 35z" glyph-name="Atilde" horiz-adv-x="687" unicode="Ã"/><glyph d="M343 538l-93 -262h185l-90 262h-2zM-6 0l271 714h161l267 -714h-163l-54 159h-267l-56 -159h-159zM176 788v117h135v-117h-135zM382 788v117h135v-117h-135z" glyph-name="Adieresis" horiz-adv-x="687" unicode="Ä"/><glyph d="M343 538l-93 -262h185l-90 262h-2zM-6 0l271 714h161l267 -714h-163l-54 159h-267l-56 -159h-159zM223 866q0 51 35.5 86.5t86.5 35.5t87 -35.5t36 -86.5t-36 -86t-87 -35t-86.5 35t-35.5 86zM282 866q0 -30 17 -49t46 -19t46.5 19t17.5 49t-17.5 49t-46.5 19t-46 -19 t-17 -49z" glyph-name="Aring" horiz-adv-x="687" unicode="Å"/><glyph d="M-6 0l341 714h606v-132h-332v-153h312v-122h-312v-175h340v-132h-492v159h-224l-72 -159h-167zM423 582l-138 -306h172v306h-34z" glyph-name="AE" horiz-adv-x="984" unicode="Æ"/><glyph d="M241 -195l21 48q42 -18 84 -18q40 0 40 34q0 32 -40 32q-22 0 -40 -7l-21 24l48 67q-55 6 -102 27q-96 42 -149.5 133t-53.5 209q0 163 95 270t256 107q121 0 207.5 -68.5t100.5 -188.5h-152q-8 53 -53 89t-103 36q-67 0 -112 -36t-63.5 -89.5t-18.5 -119.5 q0 -100 48 -169.5t146 -69.5q70 0 111.5 43t50.5 117h152q-12 -134 -97 -213t-216 -79l-26 -35l1 -2q17 7 35 7q37 0 64.5 -18t27.5 -52q0 -54 -33.5 -77t-83.5 -23q-64 0 -124 22z" glyph-name="Ccedilla" horiz-adv-x="712" unicode="Ç"/><glyph d="M59 0v714h534v-132h-377v-153h346v-122h-346v-175h385v-132h-542zM307 779l-154 142h157l96 -142h-99z" glyph-name="Egrave" horiz-adv-x="636" unicode="È"/><glyph d="M59 0v714h534v-132h-377v-153h346v-122h-346v-175h385v-132h-542zM522 921l-154 -142h-99l96 142h157z" glyph-name="Eacute" horiz-adv-x="636" unicode="É"/><glyph d="M59 0v714h534v-132h-377v-153h346v-122h-346v-175h385v-132h-542zM147 779l111 142h130l110 -142h-117l-62 81l-64 -81h-108z" glyph-name="Ecircumflex" horiz-adv-x="636" unicode="Ê"/><glyph d="M59 0v714h534v-132h-377v-153h346v-122h-346v-175h385v-132h-542zM159 788v117h135v-117h-135zM365 788v117h135v-117h-135z" glyph-name="Edieresis" horiz-adv-x="636" unicode="Ë"/><glyph d="M59 0v714h157v-714h-157zM117 779l-154 142h157l96 -142h-99z" glyph-name="Igrave" horiz-adv-x="275" unicode="Ì"/><glyph d="M59 0v714h157v-714h-157zM311 921l-154 -142h-99l96 142h157z" glyph-name="Iacute" horiz-adv-x="275" unicode="Í"/><glyph d="M59 0v714h157v-714h-157zM-38 779l111 142h130l110 -142h-117l-62 81l-64 -81h-108z" glyph-name="Icircumflex" horiz-adv-x="275" unicode="Î"/><glyph d="M59 0v714h157v-714h-157zM-34 788v117h135v-117h-135zM172 788v117h135v-117h-135z" glyph-name="Idieresis" horiz-adv-x="275" unicode="Ï"/><glyph d="M216 582v-155h160v-117h-160v-178h140q76 0 127 52t51 162q0 115 -47.5 175.5t-158.5 60.5h-112zM59 0v311h-66v116h66v287h308q145 0 234.5 -91t89.5 -262q0 -162 -83 -261.5t-241 -99.5h-308z" glyph-name="Eth" horiz-adv-x="721" unicode="Ð"/><glyph d="M59 0v714h156l298 -479h2v479h147v-714h-157l-297 478h-2v-478h-147zM479 911h69q-11 -53 -34 -82t-78 -32q-35 0 -81 17q-51 17 -68 17q-33 0 -45 -42h-61q6 48 37 84.5t80 37.5q29 0 72 -18q49 -17 65 -17q34 0 44 35z" glyph-name="Ntilde" horiz-adv-x="721" unicode="Ñ"/><glyph d="M185 354q0 -100 48 -169.5t146 -69.5t146 69.5t48 169.5q0 66 -18.5 119.5t-63.5 89.5t-112 36t-112 -36t-63.5 -89.5t-18.5 -119.5zM28 354q0 163 95 270t256 107t256 -107t95 -270q0 -159 -95 -265t-256 -106t-256 106t-95 265zM343 779l-154 142h157l96 -142h-99z" glyph-name="Ograve" horiz-adv-x="758" unicode="Ò"/><glyph d="M185 354q0 -100 48 -169.5t146 -69.5t146 69.5t48 169.5q0 66 -18.5 119.5t-63.5 89.5t-112 36t-112 -36t-63.5 -89.5t-18.5 -119.5zM28 354q0 163 95 270t256 107t256 -107t95 -270q0 -159 -95 -265t-256 -106t-256 106t-95 265zM578 921l-154 -142h-99l96 142h157z" glyph-name="Oacute" horiz-adv-x="758" unicode="Ó"/><glyph d="M185 354q0 -100 48 -169.5t146 -69.5t146 69.5t48 169.5q0 66 -18.5 119.5t-63.5 89.5t-112 36t-112 -36t-63.5 -89.5t-18.5 -119.5zM28 354q0 163 95 270t256 107t256 -107t95 -270q0 -159 -95 -265t-256 -106t-256 106t-95 265zM210 779l111 142h130l110 -142h-117 l-62 81l-64 -81h-108z" glyph-name="Ocircumflex" horiz-adv-x="758" unicode="Ô"/><glyph d="M185 354q0 -100 48 -169.5t146 -69.5t146 69.5t48 169.5q0 66 -18.5 119.5t-63.5 89.5t-112 36t-112 -36t-63.5 -89.5t-18.5 -119.5zM28 354q0 163 95 270t256 107t256 -107t95 -270q0 -159 -95 -265t-256 -106t-256 106t-95 265zM494 911h69q-11 -53 -34 -82t-78 -32 q-35 0 -81 17q-51 17 -68 17q-33 0 -45 -42h-61q6 48 37 84.5t80 37.5q29 0 72 -18q49 -17 65 -17q34 0 44 35z" glyph-name="Otilde" horiz-adv-x="758" unicode="Õ"/><glyph d="M185 354q0 -100 48 -169.5t146 -69.5t146 69.5t48 169.5q0 66 -18.5 119.5t-63.5 89.5t-112 36t-112 -36t-63.5 -89.5t-18.5 -119.5zM28 354q0 163 95 270t256 107t256 -107t95 -270q0 -159 -95 -265t-256 -106t-256 106t-95 265zM206 788v117h135v-117h-135zM412 788 v117h135v-117h-135z" glyph-name="Odieresis" horiz-adv-x="758" unicode="Ö"/><glyph d="M132 17l-76 76l161 160l-159 160l76 76l159 -160l160 160l76 -76l-161 -160l161 -160l-76 -76l-160 161z" glyph-name="multiply" horiz-adv-x="584" unicode="×"/><glyph d="M546 490l-295 -326q49 -49 128 -49q98 0 146 69.5t48 169.5q0 78 -27 136zM213 219l296 329q-51 51 -130 51q-67 0 -112 -36t-63.5 -89.5t-18.5 -119.5q0 -78 28 -135zM24 10l86 95q-82 100 -82 249q0 163 95 270t256 107q135 0 225 -77l80 89l50 -44l-84 -93 q80 -103 80 -252q0 -159 -95 -265t-256 -106q-132 0 -223 76l-83 -92z" glyph-name="Oslash" horiz-adv-x="758" unicode="Ø"/><glyph d="M665 714v-444q0 -142 -79.5 -214.5t-225.5 -72.5q-147 0 -225.5 71.5t-78.5 215.5v444h157v-444q0 -71 30.5 -113t116.5 -42q82 0 115 36.5t33 118.5v444h157zM317 779l-154 142h157l96 -142h-99z" glyph-name="Ugrave" horiz-adv-x="721" unicode="Ù"/><glyph d="M665 714v-444q0 -142 -79.5 -214.5t-225.5 -72.5q-147 0 -225.5 71.5t-78.5 215.5v444h157v-444q0 -71 30.5 -113t116.5 -42q82 0 115 36.5t33 118.5v444h157zM558 921l-154 -142h-99l96 142h157z" glyph-name="Uacute" horiz-adv-x="721" unicode="Ú"/><glyph d="M665 714v-444q0 -142 -79.5 -214.5t-225.5 -72.5q-147 0 -225.5 71.5t-78.5 215.5v444h157v-444q0 -71 30.5 -113t116.5 -42q82 0 115 36.5t33 118.5v444h157zM187 779l111 142h130l110 -142h-117l-62 81l-64 -81h-108z" glyph-name="Ucircumflex" horiz-adv-x="721" unicode="Û"/><glyph d="M665 714v-444q0 -142 -79.5 -214.5t-225.5 -72.5q-147 0 -225.5 71.5t-78.5 215.5v444h157v-444q0 -71 30.5 -113t116.5 -42q82 0 115 36.5t33 118.5v444h157zM190 788v117h135v-117h-135zM396 788v117h135v-117h-135z" glyph-name="Udieresis" horiz-adv-x="721" unicode="Ü"/><glyph d="M244 0v278l-263 436h177l167 -282l166 282h175l-265 -440v-274h-157zM524 921l-154 -142h-99l96 142h157z" glyph-name="Yacute" horiz-adv-x="647" unicode="Ý"/><glyph d="M216 495v-214h122q64 0 101 22.5t37 84.5t-37 84.5t-101 22.5h-122zM59 0v714h157v-97h165q125 0 186 -66t61 -163t-61 -163t-186 -66h-165v-159h-157z" glyph-name="Thorn" horiz-adv-x="647" unicode="Þ"/><glyph d="M48 0v491q0 240 235 240q97 0 162 -49t65 -143q0 -48 -26 -87t-67 -52v-2q63 -13 96.5 -62.5t33.5 -116.5q0 -95 -62 -164t-155 -69q-42 0 -82 6v116q16 -5 41 -5q50 0 83 35t33 86q0 56 -30.5 89t-91.5 33q-11 0 -35 -2v94q16 -2 22 -2q44 0 74.5 22.5t30.5 66.5 q0 89 -96 89q-42 0 -65.5 -26t-23.5 -72v-516h-142z" glyph-name="germandbls" horiz-adv-x="595" unicode="ß"/><glyph d="M182 358h-142q6 91 75 132t168 41q227 0 227 -147v-269q0 -86 18 -115h-144q-9 28 -10 50q-61 -64 -174 -64q-78 0 -127 39.5t-49 115.5q0 55 26.5 90t65 47t83.5 20t83 10.5t62.5 16.5t23.5 41q0 41 -24 55.5t-68 14.5q-87 0 -94 -78zM368 200v53q-8 -7 -23 -12.5 t-27.5 -7.5t-34.5 -5t-33 -5q-84 -15 -84 -76q0 -66 87 -66q115 0 115 119zM274 589l-154 142h157l96 -142h-99z" glyph-name="agrave" horiz-adv-x="558" unicode="à"/><glyph d="M182 358h-142q6 91 75 132t168 41q227 0 227 -147v-269q0 -86 18 -115h-144q-9 28 -10 50q-61 -64 -174 -64q-78 0 -127 39.5t-49 115.5q0 55 26.5 90t65 47t83.5 20t83 10.5t62.5 16.5t23.5 41q0 41 -24 55.5t-68 14.5q-87 0 -94 -78zM368 200v53q-8 -7 -23 -12.5 t-27.5 -7.5t-34.5 -5t-33 -5q-84 -15 -84 -76q0 -66 87 -66q115 0 115 119zM473 731l-154 -142h-99l96 142h157z" glyph-name="aacute" horiz-adv-x="558" unicode="á"/><glyph d="M182 358h-142q6 91 75 132t168 41q227 0 227 -147v-269q0 -86 18 -115h-144q-9 28 -10 50q-61 -64 -174 -64q-78 0 -127 39.5t-49 115.5q0 55 26.5 90t65 47t83.5 20t83 10.5t62.5 16.5t23.5 41q0 41 -24 55.5t-68 14.5q-87 0 -94 -78zM368 200v53q-8 -7 -23 -12.5 t-27.5 -7.5t-34.5 -5t-33 -5q-84 -15 -84 -76q0 -66 87 -66q115 0 115 119zM109 589l111 142h130l110 -142h-117l-62 81l-64 -81h-108z" glyph-name="acircumflex" horiz-adv-x="558" unicode="â"/><glyph d="M182 358h-142q6 91 75 132t168 41q227 0 227 -147v-269q0 -86 18 -115h-144q-9 28 -10 50q-61 -64 -174 -64q-78 0 -127 39.5t-49 115.5q0 55 26.5 90t65 47t83.5 20t83 10.5t62.5 16.5t23.5 41q0 41 -24 55.5t-68 14.5q-87 0 -94 -78zM368 200v53q-8 -7 -23 -12.5 t-27.5 -7.5t-34.5 -5t-33 -5q-84 -15 -84 -76q0 -66 87 -66q115 0 115 119zM398 721h69q-11 -53 -34 -82t-78 -32q-35 0 -81 17q-51 17 -68 17q-33 0 -45 -42h-61q6 48 37 84.5t80 37.5q29 0 72 -18q49 -17 65 -17q34 0 44 35z" glyph-name="atilde" horiz-adv-x="558" unicode="ã"/><glyph d="M182 358h-142q6 91 75 132t168 41q227 0 227 -147v-269q0 -86 18 -115h-144q-9 28 -10 50q-61 -64 -174 -64q-78 0 -127 39.5t-49 115.5q0 55 26.5 90t65 47t83.5 20t83 10.5t62.5 16.5t23.5 41q0 41 -24 55.5t-68 14.5q-87 0 -94 -78zM368 200v53q-8 -7 -23 -12.5 t-27.5 -7.5t-34.5 -5t-33 -5q-84 -15 -84 -76q0 -66 87 -66q115 0 115 119zM114 598v117h135v-117h-135zM320 598v117h135v-117h-135z" glyph-name="adieresis" horiz-adv-x="558" unicode="ä"/><glyph d="M182 358h-142q6 91 75 132t168 41q227 0 227 -147v-269q0 -86 18 -115h-144q-9 28 -10 50q-61 -64 -174 -64q-78 0 -127 39.5t-49 115.5q0 55 26.5 90t65 47t83.5 20t83 10.5t62.5 16.5t23.5 41q0 41 -24 55.5t-68 14.5q-87 0 -94 -78zM368 200v53q-8 -7 -23 -12.5 t-27.5 -7.5t-34.5 -5t-33 -5q-84 -15 -84 -76q0 -66 87 -66q115 0 115 119zM161 684q0 51 35.5 86.5t86.5 35.5t87 -35.5t36 -86.5t-36 -86t-87 -35t-86.5 35t-35.5 86zM220 684q0 -30 17 -49t46 -19t46.5 19t17.5 49t-17.5 49t-46.5 19t-46 -19t-17 -49z" glyph-name="aring" horiz-adv-x="558" unicode="å"/><glyph d="M501 314h227q0 51 -29.5 86.5t-81.5 35.5t-84 -36t-32 -86zM870 224h-369q-2 -54 32.5 -98.5t90.5 -44.5q89 0 103 81h138q-22 -82 -87 -129t-151 -47q-132 0 -193 88q-34 -45 -91 -66.5t-120 -21.5q-83 0 -138 37t-55 117q0 42 14 72t41.5 47t54 25t63.5 14 q117 18 132 23q41 16 42 49q0 66 -92 66q-95 0 -99 -80h-142q2 62 39 103t88.5 56.5t116.5 15.5q122 0 171 -70q60 70 173 70q82 0 137.5 -44.5t78 -111t22.5 -151.5zM377 188v64q-17 -13 -54 -20.5t-69 -11t-57 -21t-25 -51.5q0 -67 88 -67q45 0 81 27.5t36 79.5z" glyph-name="ae" horiz-adv-x="897" unicode="æ"/><glyph d="M164 -195l21 48q42 -18 84 -18q40 0 40 34q0 32 -40 32q-22 0 -40 -7l-21 24l50 70q-43 5 -74 17q-72 29 -113 94.5t-41 151.5q0 124 70.5 202t193.5 78q98 0 167.5 -51t75.5 -145h-139q-14 89 -105 89q-62 0 -91.5 -50.5t-29.5 -117.5q0 -66 28.5 -114.5t89.5 -48.5 q98 0 113 105h137q-13 -102 -80 -158q-62 -50 -155 -54l-28 -38l1 -2q17 7 35 7q37 0 64.5 -18t27.5 -52q0 -54 -33.5 -77t-83.5 -23q-64 0 -124 22z" glyph-name="ccedilla" horiz-adv-x="558" unicode="ç"/><glyph d="M166 314h231q-10 56 -36.5 83t-76.5 27q-61 0 -88 -34.5t-30 -75.5zM539 224h-373q6 -131 127 -131q41 0 73 20.5t39 46.5h125q-57 -174 -242 -174q-121 0 -192.5 75.5t-71.5 196.5q0 118 73.5 195.5t190.5 77.5q126 0 193 -90t58 -217zM253 589l-154 142h157l96 -142 h-99z" glyph-name="egrave" horiz-adv-x="567" unicode="è"/><glyph d="M166 314h231q-10 56 -36.5 83t-76.5 27q-61 0 -88 -34.5t-30 -75.5zM539 224h-373q6 -131 127 -131q41 0 73 20.5t39 46.5h125q-57 -174 -242 -174q-121 0 -192.5 75.5t-71.5 196.5q0 118 73.5 195.5t190.5 77.5q126 0 193 -90t58 -217zM487 731l-154 -142h-99l96 142 h157z" glyph-name="eacute" horiz-adv-x="567" unicode="é"/><glyph d="M166 314h231q-10 56 -36.5 83t-76.5 27q-61 0 -88 -34.5t-30 -75.5zM539 224h-373q6 -131 127 -131q41 0 73 20.5t39 46.5h125q-57 -174 -242 -174q-121 0 -192.5 75.5t-71.5 196.5q0 118 73.5 195.5t190.5 77.5q126 0 193 -90t58 -217zM113 589l111 142h130l110 -142 h-117l-62 81l-64 -81h-108z" glyph-name="ecircumflex" horiz-adv-x="567" unicode="ê"/><glyph d="M166 314h231q-10 56 -36.5 83t-76.5 27q-61 0 -88 -34.5t-30 -75.5zM539 224h-373q6 -131 127 -131q41 0 73 20.5t39 46.5h125q-57 -174 -242 -174q-121 0 -192.5 75.5t-71.5 196.5q0 118 73.5 195.5t190.5 77.5q126 0 193 -90t58 -217zM117 598v117h135v-117h-135z M323 598v117h135v-117h-135z" glyph-name="edieresis" horiz-adv-x="567" unicode="ë"/><glyph d="M50 0v517h142v-517h-142zM93 589l-154 142h157l96 -142h-99z" glyph-name="igrave" horiz-adv-x="242" unicode="ì"/><glyph d="M50 0v517h142v-517h-142zM303 731l-154 -142h-99l96 142h157z" glyph-name="iacute" horiz-adv-x="242" unicode="í"/><glyph d="M50 0v517h142v-517h-142zM-52 589l111 142h130l110 -142h-117l-62 81l-64 -81h-108z" glyph-name="icircumflex" horiz-adv-x="242" unicode="î"/><glyph d="M50 0v517h142v-517h-142zM-49 598v117h135v-117h-135zM157 598v117h135v-117h-135z" glyph-name="idieresis" horiz-adv-x="242" unicode="ï"/><glyph d="M122 593l107 54q-39 29 -84 50l92 69q54 -30 99 -66l123 62l52 -59l-114 -57q84 -81 125.5 -171t39.5 -202q0 -125 -73.5 -206t-194.5 -81q-120 0 -193.5 73t-73.5 188q0 66 23 122.5t77 96.5t130 40t135 -40h2q-26 60 -102 127l-112 -56zM294 93q67 0 96.5 47t29.5 118 q0 63 -31.5 108t-95.5 45t-94 -45t-30 -108q0 -71 29.5 -118t95.5 -47z" glyph-name="eth" horiz-adv-x="592" unicode="ð"/><glyph d="M46 0v517h135v-72h3q26 42 68.5 64t89.5 22q107 0 148 -54t41 -159v-318h-142v292q0 65 -21 96t-70 31q-58 0 -84 -35t-26 -113v-271h-142zM404 721h69q-11 -53 -34 -82t-78 -32q-35 0 -81 17q-51 17 -68 17q-33 0 -45 -42h-61q6 48 37 84.5t80 37.5q29 0 72 -18 q49 -17 65 -17q34 0 44 35z" glyph-name="ntilde" horiz-adv-x="577" unicode="ñ"/><glyph d="M169 258q0 -71 29.5 -118t95.5 -47q67 0 96.5 47t29.5 118t-29.5 118.5t-96.5 47.5q-66 0 -95.5 -47.5t-29.5 -118.5zM27 258q0 124 73 198.5t194 74.5q122 0 195 -74.5t73 -198.5q0 -123 -73 -197.5t-195 -74.5q-121 0 -194 74.5t-73 197.5zM248 589l-154 142h157 l96 -142h-99z" glyph-name="ograve" horiz-adv-x="589" unicode="ò"/><glyph d="M169 258q0 -71 29.5 -118t95.5 -47q67 0 96.5 47t29.5 118t-29.5 118.5t-96.5 47.5q-66 0 -95.5 -47.5t-29.5 -118.5zM27 258q0 124 73 198.5t194 74.5q122 0 195 -74.5t73 -198.5q0 -123 -73 -197.5t-195 -74.5q-121 0 -194 74.5t-73 197.5zM493 731l-154 -142h-99 l96 142h157z" glyph-name="oacute" horiz-adv-x="589" unicode="ó"/><glyph d="M169 258q0 -71 29.5 -118t95.5 -47q67 0 96.5 47t29.5 118t-29.5 118.5t-96.5 47.5q-66 0 -95.5 -47.5t-29.5 -118.5zM27 258q0 124 73 198.5t194 74.5q122 0 195 -74.5t73 -198.5q0 -123 -73 -197.5t-195 -74.5q-121 0 -194 74.5t-73 197.5zM121 589l111 142h130 l110 -142h-117l-62 81l-64 -81h-108z" glyph-name="ocircumflex" horiz-adv-x="589" unicode="ô"/><glyph d="M169 258q0 -71 29.5 -118t95.5 -47q67 0 96.5 47t29.5 118t-29.5 118.5t-96.5 47.5q-66 0 -95.5 -47.5t-29.5 -118.5zM27 258q0 124 73 198.5t194 74.5q122 0 195 -74.5t73 -198.5q0 -123 -73 -197.5t-195 -74.5q-121 0 -194 74.5t-73 197.5zM410 721h69q-11 -53 -34 -82 t-78 -32q-35 0 -81 17q-51 17 -68 17q-33 0 -45 -42h-61q6 48 37 84.5t80 37.5q29 0 72 -18q49 -17 65 -17q34 0 44 35z" glyph-name="otilde" horiz-adv-x="589" unicode="õ"/><glyph d="M169 258q0 -71 29.5 -118t95.5 -47q67 0 96.5 47t29.5 118t-29.5 118.5t-96.5 47.5q-66 0 -95.5 -47.5t-29.5 -118.5zM27 258q0 124 73 198.5t194 74.5q122 0 195 -74.5t73 -198.5q0 -123 -73 -197.5t-195 -74.5q-121 0 -194 74.5t-73 197.5zM125 598v117h135v-117h-135z M331 598v117h135v-117h-135z" glyph-name="odieresis" horiz-adv-x="589" unicode="ö"/><glyph d="M208 45q0 35 25.5 59.5t59.5 24.5t59 -24.5t25 -59.5q0 -32 -25 -58.5t-58 -26.5q-35 0 -60.5 25.5t-25.5 59.5zM208 460q0 35 25.5 60t59.5 25t59 -25t25 -60q0 -33 -25 -58.5t-58 -25.5q-35 0 -60.5 25t-25.5 59zM40 199v107h505v-107h-505z" glyph-name="divide" horiz-adv-x="584" unicode="÷"/><glyph d="M33 1l60 68q-66 72 -66 189q0 124 73 198.5t194 74.5q96 0 163 -48l53 61l37 -32l-54 -61q69 -74 69 -193q0 -123 -73 -197.5t-195 -74.5q-97 0 -165 50l-59 -67zM404 349l-195 -222q31 -34 85 -34q67 0 96.5 47t29.5 118q0 52 -16 91zM184 172l193 220q-30 32 -83 32 q-66 0 -95.5 -47.5t-29.5 -118.5q0 -52 15 -86z" glyph-name="oslash" horiz-adv-x="589" unicode="ø"/><glyph d="M531 517v-517h-135v72h-3q-26 -42 -68.5 -64t-89.5 -22q-107 0 -148 54t-41 159v318h142v-292q0 -65 21 -96t70 -31q58 0 84 35t26 113v271h142zM243 589l-154 142h157l96 -142h-99z" glyph-name="ugrave" horiz-adv-x="577" unicode="ù"/><glyph d="M531 517v-517h-135v72h-3q-26 -42 -68.5 -64t-89.5 -22q-107 0 -148 54t-41 159v318h142v-292q0 -65 21 -96t70 -31q58 0 84 35t26 113v271h142zM487 731l-154 -142h-99l96 142h157z" glyph-name="uacute" horiz-adv-x="577" unicode="ú"/><glyph d="M531 517v-517h-135v72h-3q-26 -42 -68.5 -64t-89.5 -22q-107 0 -148 54t-41 159v318h142v-292q0 -65 21 -96t70 -31q58 0 84 35t26 113v271h142zM115 589l111 142h130l110 -142h-117l-62 81l-64 -81h-108z" glyph-name="ucircumflex" horiz-adv-x="577" unicode="û"/><glyph d="M531 517v-517h-135v72h-3q-26 -42 -68.5 -64t-89.5 -22q-107 0 -148 54t-41 159v318h142v-292q0 -65 21 -96t70 -31q58 0 84 35t26 113v271h142zM120 598v117h135v-117h-135zM326 598v117h135v-117h-135z" glyph-name="udieresis" horiz-adv-x="577" unicode="ü"/><glyph d="M528 517l-216 -582q-23 -63 -64.5 -90t-113.5 -27q-39 0 -87 5v117q54 -6 83 -5q27 3 41 21.5t14 43.5q0 17 -6 32l-182 485h152l117 -354h2l113 354h147zM467 731l-154 -142h-99l96 142h157z" glyph-name="yacute" horiz-adv-x="525" unicode="ý"/><glyph d="M430 257q0 70 -30.5 118.5t-93.5 48.5q-65 0 -94 -48t-29 -119q0 -70 30 -117t94 -47q65 0 94 46.5t29 117.5zM46 -182v896h142v-263h2q50 80 147 80q115 0 175 -79.5t60 -198.5q0 -111 -59.5 -189t-167.5 -78q-101 0 -155 78h-2v-246h-142z" glyph-name="thorn" horiz-adv-x="600" unicode="þ"/><glyph d="M528 517l-216 -582q-23 -63 -64.5 -90t-113.5 -27q-39 0 -87 5v117q54 -6 83 -5q27 3 41 21.5t14 43.5q0 17 -6 32l-182 485h152l117 -354h2l113 354h147zM97 598v117h135v-117h-135zM303 598v117h135v-117h-135z" glyph-name="ydieresis" horiz-adv-x="525" unicode="ÿ"/><glyph d="M343 538l-93 -262h185l-90 262h-2zM-6 0l271 714h161l267 -714h-163l-54 159h-267l-56 -159h-159zM160 809v75h373v-75h-373z" glyph-name="Amacron" horiz-adv-x="687" unicode="Ā"/><glyph d="M182 358h-142q6 91 75 132t168 41q227 0 227 -147v-269q0 -86 18 -115h-144q-9 28 -10 50q-61 -64 -174 -64q-78 0 -127 39.5t-49 115.5q0 55 26.5 90t65 47t83.5 20t83 10.5t62.5 16.5t23.5 41q0 41 -24 55.5t-68 14.5q-87 0 -94 -78zM368 200v53q-8 -7 -23 -12.5 t-27.5 -7.5t-34.5 -5t-33 -5q-84 -15 -84 -76q0 -66 87 -66q115 0 115 119zM99 619v75h373v-75h-373z" glyph-name="amacron" horiz-adv-x="558" unicode="ā"/><glyph d="M343 538l-93 -262h185l-90 262h-2zM-6 0l271 714h161l267 -714h-163l-54 159h-267l-56 -159h-159zM178 923h65q5 -37 34 -54t65 -17q93 0 110 71h63q-18 -146 -178 -146q-147 0 -159 146z" glyph-name="Abreve" horiz-adv-x="687" unicode="Ă"/><glyph d="M182 358h-142q6 91 75 132t168 41q227 0 227 -147v-269q0 -86 18 -115h-144q-9 28 -10 50q-61 -64 -174 -64q-78 0 -127 39.5t-49 115.5q0 55 26.5 90t65 47t83.5 20t83 10.5t62.5 16.5t23.5 41q0 41 -24 55.5t-68 14.5q-87 0 -94 -78zM368 200v53q-8 -7 -23 -12.5 t-27.5 -7.5t-34.5 -5t-33 -5q-84 -15 -84 -76q0 -66 87 -66q115 0 115 119zM118 733h65q5 -37 34 -54t65 -17q93 0 110 71h63q-18 -146 -178 -146q-147 0 -159 146z" glyph-name="abreve" horiz-adv-x="558" unicode="ă"/><glyph d="M608 -127l48 -22q-54 -68 -133 -68q-37 0 -63 13q-19 9 -31.5 28.5t-12.5 40.5q0 27 16 53q24 38 98 82l-54 159h-267l-56 -159h-159l271 714h161l267 -714h-98q-83 -74 -83 -117q0 -19 11.5 -29.5t27.5 -10.5q28 0 57 30zM343 538l-93 -262h185l-90 262h-2z" glyph-name="Aogonek" horiz-adv-x="687" unicode="Ą"/><glyph d="M457 -127l45 -22q-50 -68 -124 -68q-34 0 -59 13q-17 10 -29 29t-12 40q0 27 15 53q25 40 91 82q-9 28 -10 50q-61 -64 -174 -64q-78 0 -127 39.5t-49 115.5q0 55 26.5 90t65 47t83.5 20t83 10.5t62.5 16.5t23.5 41q0 41 -24 55.5t-68 14.5q-87 0 -94 -78h-142 q6 91 75 132t168 41q227 0 227 -147v-269q0 -86 18 -115h-83q-77 -73 -77 -117q0 -19 10.5 -29.5t25.5 -10.5q27 0 53 30zM368 200v53q-8 -7 -23 -12.5t-27.5 -7.5t-34.5 -5t-33 -5q-84 -15 -84 -76q0 -66 87 -66q115 0 115 119z" glyph-name="aogonek" horiz-adv-x="558" unicode="ą"/><glyph d="M687 474h-152q-8 53 -53 89t-103 36q-67 0 -112 -36t-63.5 -89.5t-18.5 -119.5q0 -100 48 -169.5t146 -69.5q70 0 111.5 43t50.5 117h152q-12 -134 -97 -213t-217 -79q-161 0 -256 106t-95 265q0 163 95 270t256 107q121 0 207.5 -68.5t100.5 -188.5zM576 921l-154 -142 h-99l96 142h157z" glyph-name="Cacute" horiz-adv-x="712" unicode="Ć"/><glyph d="M537 335h-139q-14 89 -105 89q-62 0 -91.5 -50.5t-29.5 -117.5q0 -66 28.5 -114.5t89.5 -48.5q98 0 113 105h137q-14 -102 -79.5 -157t-169.5 -55q-116 0 -188.5 74t-72.5 191q0 124 70.5 202t193.5 78q98 0 167.5 -51t75.5 -145zM496 731l-154 -142h-99l96 142h157z" glyph-name="cacute" horiz-adv-x="558" unicode="ć"/><glyph d="M687 474h-152q-8 53 -53 89t-103 36q-67 0 -112 -36t-63.5 -89.5t-18.5 -119.5q0 -100 48 -169.5t146 -69.5q70 0 111.5 43t50.5 117h152q-12 -134 -97 -213t-217 -79q-161 0 -256 106t-95 265q0 163 95 270t256 107q121 0 207.5 -68.5t100.5 -188.5zM204 779l111 142 h130l110 -142h-117l-62 81l-64 -81h-108z" glyph-name="Ccircumflex" horiz-adv-x="712" unicode="Ĉ"/><glyph d="M537 335h-139q-14 89 -105 89q-62 0 -91.5 -50.5t-29.5 -117.5q0 -66 28.5 -114.5t89.5 -48.5q98 0 113 105h137q-14 -102 -79.5 -157t-169.5 -55q-116 0 -188.5 74t-72.5 191q0 124 70.5 202t193.5 78q98 0 167.5 -51t75.5 -145zM124 589l111 142h130l110 -142h-117 l-62 81l-64 -81h-108z" glyph-name="ccircumflex" horiz-adv-x="558" unicode="ĉ"/><glyph d="M687 474h-152q-8 53 -53 89t-103 36q-67 0 -112 -36t-63.5 -89.5t-18.5 -119.5q0 -100 48 -169.5t146 -69.5q70 0 111.5 43t50.5 117h152q-12 -134 -97 -213t-217 -79q-161 0 -256 106t-95 265q0 163 95 270t256 107q121 0 207.5 -68.5t100.5 -188.5zM305 788v117h135 v-117h-135z" glyph-name="Cdotaccent" horiz-adv-x="712" unicode="Ċ"/><glyph d="M537 335h-139q-14 89 -105 89q-62 0 -91.5 -50.5t-29.5 -117.5q0 -66 28.5 -114.5t89.5 -48.5q98 0 113 105h137q-14 -102 -79.5 -157t-169.5 -55q-116 0 -188.5 74t-72.5 191q0 124 70.5 202t193.5 78q98 0 167.5 -51t75.5 -145zM229 598v117h135v-117h-135z" glyph-name="cdotaccent" horiz-adv-x="558" unicode="ċ"/><glyph d="M687 474h-152q-8 53 -53 89t-103 36q-67 0 -112 -36t-63.5 -89.5t-18.5 -119.5q0 -100 48 -169.5t146 -69.5q70 0 111.5 43t50.5 117h152q-12 -134 -97 -213t-217 -79q-161 0 -256 106t-95 265q0 163 95 270t256 107q121 0 207.5 -68.5t100.5 -188.5zM548 921l-110 -142 h-130l-111 142h112l64 -81l65 81h110z" glyph-name="Ccaron" horiz-adv-x="712" unicode="Č"/><glyph d="M537 335h-139q-14 89 -105 89q-62 0 -91.5 -50.5t-29.5 -117.5q0 -66 28.5 -114.5t89.5 -48.5q98 0 113 105h137q-14 -102 -79.5 -157t-169.5 -55q-116 0 -188.5 74t-72.5 191q0 124 70.5 202t193.5 78q98 0 167.5 -51t75.5 -145zM474 731l-110 -142h-130l-111 142h112 l64 -81l65 81h110z" glyph-name="ccaron" horiz-adv-x="558" unicode="č"/><glyph d="M216 582v-450h140q76 0 127 52t51 162q0 115 -47.5 175.5t-158.5 60.5h-112zM59 0v714h308q145 0 234.5 -91t89.5 -262q0 -162 -83 -261.5t-241 -99.5h-308zM498 921l-110 -142h-130l-111 142h112l64 -81l65 81h110z" glyph-name="Dcaron" horiz-adv-x="721" unicode="Ď"/><glyph d="M413 260q0 71 -29 117.5t-93 46.5q-65 0 -95 -47t-30 -118q0 -68 31.5 -117t93.5 -49q65 0 93.5 47.5t28.5 119.5zM415 0v66h-2q-47 -80 -157 -80q-111 0 -171.5 80.5t-60.5 196.5q0 112 60.5 190t168.5 78q47 0 88.5 -20t64.5 -57h2v260h142v-714h-135zM778 714 l-85 -142h-98l35 142h148z" glyph-name="dcaron" horiz-adv-x="704" unicode="ď"/><glyph d="M216 582v-155h160v-117h-160v-178h140q76 0 127 52t51 162q0 115 -47.5 175.5t-158.5 60.5h-112zM59 0v311h-66v116h66v287h308q145 0 234.5 -91t89.5 -262q0 -162 -83 -261.5t-241 -99.5h-308z" glyph-name="Dcroat" horiz-adv-x="721" unicode="Đ"/><glyph d="M253 567v75h155v72h142v-72h76v-75h-76v-567h-135v66h-2q-47 -80 -157 -80q-111 0 -171.5 80.5t-60.5 196.5q0 112 60.5 190t168.5 78q47 0 88.5 -20t64.5 -57h2v113h-155zM413 260q0 71 -29 117.5t-93 46.5q-65 0 -95 -47t-30 -118q0 -68 31.5 -117t93.5 -49 q65 0 93.5 47.5t28.5 119.5z" glyph-name="dcroat" horiz-adv-x="618" unicode="đ"/><glyph d="M59 0v714h534v-132h-377v-153h346v-122h-346v-175h385v-132h-542zM138 809v75h373v-75h-373z" glyph-name="Emacron" horiz-adv-x="636" unicode="Ē"/><glyph d="M166 314h231q-10 56 -36.5 83t-76.5 27q-61 0 -88 -34.5t-30 -75.5zM539 224h-373q6 -131 127 -131q41 0 73 20.5t39 46.5h125q-57 -174 -242 -174q-121 0 -192.5 75.5t-71.5 196.5q0 118 73.5 195.5t190.5 77.5q126 0 193 -90t58 -217zM100 619v75h373v-75h-373z" glyph-name="emacron" horiz-adv-x="567" unicode="ē"/><glyph d="M59 0v714h534v-132h-377v-153h346v-122h-346v-175h385v-132h-542zM151 923h65q5 -37 34 -54t65 -17q93 0 110 71h63q-18 -146 -178 -146q-147 0 -159 146z" glyph-name="Ebreve" horiz-adv-x="636" unicode="Ĕ"/><glyph d="M166 314h231q-10 56 -36.5 83t-76.5 27q-61 0 -88 -34.5t-30 -75.5zM539 224h-373q6 -131 127 -131q41 0 73 20.5t39 46.5h125q-57 -174 -242 -174q-121 0 -192.5 75.5t-71.5 196.5q0 118 73.5 195.5t190.5 77.5q126 0 193 -90t58 -217zM120 733h65q5 -37 34 -54t65 -17 q93 0 110 71h63q-18 -146 -178 -146q-147 0 -159 146z" glyph-name="ebreve" horiz-adv-x="567" unicode="ĕ"/><glyph d="M59 0v714h534v-132h-377v-153h346v-122h-346v-175h385v-132h-542zM257 788v117h135v-117h-135z" glyph-name="Edotaccent" horiz-adv-x="636" unicode="Ė"/><glyph d="M166 314h231q-10 56 -36.5 83t-76.5 27q-61 0 -88 -34.5t-30 -75.5zM539 224h-373q6 -131 127 -131q41 0 73 20.5t39 46.5h125q-57 -174 -242 -174q-121 0 -192.5 75.5t-71.5 196.5q0 118 73.5 195.5t190.5 77.5q126 0 193 -90t58 -217zM220 598v117h135v-117h-135z" glyph-name="edotaccent" horiz-adv-x="567" unicode="ė"/><glyph d="M553 -127l48 -22q-54 -68 -133 -68q-37 0 -63 13q-19 9 -31.5 28.5t-12.5 40.5q0 27 16 53q24 38 98 82h-416v714h534v-132h-377v-153h346v-122h-346v-175h385v-132h-61q-83 -74 -83 -117q0 -19 11.5 -29.5t27.5 -10.5q28 0 57 30z" glyph-name="Eogonek" horiz-adv-x="636" unicode="Ę"/><glyph d="M356 -127l48 -22q-54 -68 -133 -68q-37 0 -63 13q-19 9 -31.5 28.5t-12.5 40.5q1 25 9 41.5t40 48.5q15 14 44 33q-43 3 -79 18q-73 29 -113.5 95.5t-40.5 156.5q0 118 73.5 195.5t190.5 77.5q126 0 193 -90t58 -217h-373q6 -131 127 -131q41 0 73 20.5t39 46.5h125 q-30 -92 -92 -133q-45 -30 -108 -38q-37 -34 -53 -58q-17 -28 -17 -48q0 -19 11.5 -29.5t27.5 -10.5q28 0 57 30zM166 314h231q-10 56 -36.5 83t-76.5 27q-61 0 -88 -34.5t-30 -75.5z" glyph-name="eogonek" horiz-adv-x="567" unicode="ę"/><glyph d="M59 0v714h534v-132h-377v-153h346v-122h-346v-175h385v-132h-542zM498 921l-110 -142h-130l-111 142h112l64 -81l65 81h110z" glyph-name="Ecaron" horiz-adv-x="636" unicode="Ě"/><glyph d="M166 314h231q-10 56 -36.5 83t-76.5 27q-61 0 -88 -34.5t-30 -75.5zM539 224h-373q6 -131 127 -131q41 0 73 20.5t39 46.5h125q-57 -174 -242 -174q-121 0 -192.5 75.5t-71.5 196.5q0 118 73.5 195.5t190.5 77.5q126 0 193 -90t58 -217zM464 731l-110 -142h-130l-111 142 h112l64 -81l65 81h110z" glyph-name="ecaron" horiz-adv-x="567" unicode="ě"/><glyph d="M591 0l-16 81q-76 -98 -196 -98q-161 0 -256 106t-95 265q0 163 95 270t256 107q116 0 202.5 -67.5t98.5 -184.5h-150q-14 59 -54 89.5t-97 30.5q-67 0 -112 -36t-63.5 -89.5t-18.5 -119.5q0 -100 48 -169.5t146 -69.5q156 0 170 154h-158v117h300v-386h-100zM205 779 l111 142h130l110 -142h-117l-62 81l-64 -81h-108z" glyph-name="Gcircumflex" horiz-adv-x="733" unicode="Ĝ"/><glyph d="M284 122q58 0 89.5 41.5t31.5 101.5q0 70 -28.5 114.5t-92.5 44.5q-57 0 -86 -42t-29 -105q0 -41 10 -74t37 -57t68 -24zM540 517v-484q0 -30 -5 -57t-21.5 -60t-44.5 -56.5t-78.5 -39.5t-118.5 -16q-86 0 -154 42.5t-74 123.5h141q17 -71 106 -71q57 0 86 34.5t28 93.5 v68h-2q-22 -40 -63.5 -60t-91.5 -20q-111 0 -166 72.5t-55 187.5q0 106 59.5 181t162.5 75q106 0 154 -83h2v69h135zM135 589l111 142h130l110 -142h-117l-62 81l-64 -81h-108z" glyph-name="gcircumflex" horiz-adv-x="586" unicode="ĝ"/><glyph d="M591 0l-16 81q-76 -98 -196 -98q-161 0 -256 106t-95 265q0 163 95 270t256 107q116 0 202.5 -67.5t98.5 -184.5h-150q-14 59 -54 89.5t-97 30.5q-67 0 -112 -36t-63.5 -89.5t-18.5 -119.5q0 -100 48 -169.5t146 -69.5q156 0 170 154h-158v117h300v-386h-100zM206 923h65 q5 -37 34 -54t65 -17q93 0 110 71h63q-18 -146 -178 -146q-147 0 -159 146z" glyph-name="Gbreve" horiz-adv-x="733" unicode="Ğ"/><glyph d="M284 122q58 0 89.5 41.5t31.5 101.5q0 70 -28.5 114.5t-92.5 44.5q-57 0 -86 -42t-29 -105q0 -41 10 -74t37 -57t68 -24zM540 517v-484q0 -30 -5 -57t-21.5 -60t-44.5 -56.5t-78.5 -39.5t-118.5 -16q-86 0 -154 42.5t-74 123.5h141q17 -71 106 -71q57 0 86 34.5t28 93.5 v68h-2q-22 -40 -63.5 -60t-91.5 -20q-111 0 -166 72.5t-55 187.5q0 106 59.5 181t162.5 75q106 0 154 -83h2v69h135zM121 733h65q5 -37 34 -54t65 -17q93 0 110 71h63q-18 -146 -178 -146q-147 0 -159 146z" glyph-name="gbreve" horiz-adv-x="586" unicode="ğ"/><glyph d="M591 0l-16 81q-76 -98 -196 -98q-161 0 -256 106t-95 265q0 163 95 270t256 107q116 0 202.5 -67.5t98.5 -184.5h-150q-14 59 -54 89.5t-97 30.5q-67 0 -112 -36t-63.5 -89.5t-18.5 -119.5q0 -100 48 -169.5t146 -69.5q156 0 170 154h-158v117h300v-386h-100zM311 788 v117h135v-117h-135z" glyph-name="Gdotaccent" horiz-adv-x="733" unicode="Ġ"/><glyph d="M284 122q58 0 89.5 41.5t31.5 101.5q0 70 -28.5 114.5t-92.5 44.5q-57 0 -86 -42t-29 -105q0 -41 10 -74t37 -57t68 -24zM540 517v-484q0 -30 -5 -57t-21.5 -60t-44.5 -56.5t-78.5 -39.5t-118.5 -16q-86 0 -154 42.5t-74 123.5h141q17 -71 106 -71q57 0 86 34.5t28 93.5 v68h-2q-22 -40 -63.5 -60t-91.5 -20q-111 0 -166 72.5t-55 187.5q0 106 59.5 181t162.5 75q106 0 154 -83h2v69h135zM229 598v117h135v-117h-135z" glyph-name="gdotaccent" horiz-adv-x="586" unicode="ġ"/><glyph d="M591 0l-16 81q-76 -98 -196 -98q-161 0 -256 106t-95 265q0 163 95 270t256 107q116 0 202.5 -67.5t98.5 -184.5h-150q-14 59 -54 89.5t-97 30.5q-67 0 -112 -36t-63.5 -89.5t-18.5 -119.5q0 -100 48 -169.5t146 -69.5q156 0 170 154h-158v117h300v-386h-100zM299 -143 v93h145v-73q0 -58 -34 -76t-101 -18v37q48 4 57 37h-67z" glyph-name="Gcommaaccent" horiz-adv-x="733" unicode="Ģ"/><glyph d="M284 122q58 0 89.5 41.5t31.5 101.5q0 70 -28.5 114.5t-92.5 44.5q-57 0 -86 -42t-29 -105q0 -41 10 -74t37 -57t68 -24zM540 517v-484q0 -30 -5 -57t-21.5 -60t-44.5 -56.5t-78.5 -39.5t-118.5 -16q-86 0 -154 42.5t-74 123.5h141q17 -71 106 -71q57 0 86 34.5t28 93.5 v68h-2q-22 -40 -63.5 -60t-91.5 -20q-111 0 -166 72.5t-55 187.5q0 106 59.5 181t162.5 75q106 0 154 -83h2v69h135zM373 714v-93h-145v73q0 58 34 76t101 18v-37q-48 -4 -57 -37h67z" glyph-name="gcommaaccent" horiz-adv-x="586" unicode="ģ"/><glyph d="M59 0v714h157v-274h289v274h157v-714h-157v308h-289v-308h-157zM184 779l111 142h130l110 -142h-117l-62 81l-64 -81h-108z" glyph-name="Hcircumflex" horiz-adv-x="721" unicode="Ĥ"/><glyph d="M46 0v714h142v-269h3q26 42 67 64t84 22q107 0 148 -54t41 -159v-318h-142v292q0 65 -21 96t-70 31q-58 0 -84 -35t-26 -113v-271h-142zM116 779l111 142h130l110 -142h-117l-62 81l-64 -81h-108z" glyph-name="hcircumflex" horiz-adv-x="577" unicode="ĥ"/><glyph d="M59 0v714h157v-143h289v143h157v-714h-157v298h-289v-298h-157zM216 420h289v76h-289v-76z" glyph-name="Hbar" horiz-adv-x="721" unicode="Ħ"/><glyph d="M-14 567v75h90v72h142v-72h141v-75h-141v-122h3q26 42 67 64t84 22q107 0 148 -54t41 -159v-318h-142v292q0 65 -21 96t-70 31q-58 0 -84 -35t-26 -113v-271h-142v567h-90z" glyph-name="hbar" horiz-adv-x="607" unicode="ħ"/><glyph d="M59 0v714h157v-714h-157zM256 911h69q-11 -53 -34 -82t-78 -32q-35 0 -81 17q-51 17 -68 17q-33 0 -45 -42h-61q6 48 37 84.5t80 37.5q29 0 72 -18q49 -17 65 -17q34 0 44 35z" glyph-name="Itilde" horiz-adv-x="275" unicode="Ĩ"/><glyph d="M50 0v517h142v-517h-142zM236 721h69q-11 -53 -34 -82t-78 -32q-35 0 -81 17q-51 17 -68 17q-33 0 -45 -42h-61q6 48 37 84.5t80 37.5q29 0 72 -18q49 -17 65 -17q34 0 44 35z" glyph-name="itilde" horiz-adv-x="242" unicode="ĩ"/><glyph d="M59 0v714h157v-714h-157zM-47 809v75h373v-75h-373z" glyph-name="Imacron" horiz-adv-x="275" unicode="Ī"/><glyph d="M50 0v517h142v-517h-142zM-64 619v75h373v-75h-373z" glyph-name="imacron" horiz-adv-x="242" unicode="ī"/><glyph d="M202 -127l43 -22q-49 -68 -120 -68q-32 0 -57 13q-16 9 -27.5 28.5t-11.5 40.5q0 29 14 53q22 39 89 82h-73v714h157v-714h-26q-75 -75 -75 -117q0 -19 10.5 -29.5t25.5 -10.5q26 0 51 30z" glyph-name="Iogonek" horiz-adv-x="275" unicode="Į"/><glyph d="M183 -127l43 -22q-49 -68 -120 -68q-32 0 -57 13q-16 9 -27.5 28.5t-11.5 40.5q0 29 14 53q22 39 89 82h-63v517h142v-517h-21q-75 -75 -75 -117q0 -19 10.5 -29.5t25.5 -10.5q26 0 51 30zM192 714v-117h-142v117h142z" glyph-name="iogonek" horiz-adv-x="242" unicode="į"/><glyph d="M59 0v714h157v-714h-157zM71 788v117h135v-117h-135z" glyph-name="Idotaccent" horiz-adv-x="275" unicode="İ"/><glyph d="M50 0v517h142v-517h-142z" glyph-name="dotlessi" horiz-adv-x="242" unicode="ı"/><glyph d="M487 714v-489q0 -242 -238 -242q-98 0 -166.5 55.5t-68.5 165.5v62h142v-32q0 -58 19.5 -88.5t71.5 -30.5q29 0 47.5 10t25.5 30.5t8.5 35.5t1.5 41v482h157zM234 779l111 142h130l110 -142h-117l-62 81l-64 -81h-108z" glyph-name="Jcircumflex" horiz-adv-x="546" unicode="Ĵ"/><glyph d="M-27 -178v117q11 -4 31 -4q55 0 55 46v536h142v-543q0 -83 -39 -119.5t-143 -36.5q-26 0 -46 4zM-48 589l111 142h130l110 -142h-117l-62 81l-64 -81h-108z" glyph-name="jcircumflex" horiz-adv-x="262" unicode="ĵ"/><glyph d="M59 0v714h157v-296l279 296h196l-279 -282l306 -432h-197l-215 321l-90 -91v-230h-157zM287 -143v93h145v-73q0 -58 -34 -76t-101 -18v37q48 4 57 37h-67z" glyph-name="Kcommaaccent" horiz-adv-x="712" unicode="Ķ"/><glyph d="M59 0v714h142v-383l179 186h168l-195 -190l217 -327h-172l-142 231l-55 -53v-178h-142zM227 -143v93h145v-73q0 -58 -34 -76t-101 -18v37q48 4 57 37h-67z" glyph-name="kcommaaccent" horiz-adv-x="562" unicode="ķ"/><glyph d="M59 0v714h157v-582h348v-132h-505zM340 921l-154 -142h-99l96 142h157z" glyph-name="Lacute" horiz-adv-x="578" unicode="Ĺ"/><glyph d="M50 0v714h142v-714h-142zM303 921l-154 -142h-99l96 142h157z" glyph-name="lacute" horiz-adv-x="242" unicode="ĺ"/><glyph d="M59 0v714h157v-582h348v-132h-505zM234 -143v93h145v-73q0 -58 -34 -76t-101 -18v37q48 4 57 37h-67z" glyph-name="Lcommaaccent" horiz-adv-x="578" unicode="Ļ"/><glyph d="M50 0v714h142v-714h-142zM48 -143v93h145v-73q0 -58 -34 -76t-101 -18v37q48 4 57 37h-67z" glyph-name="lcommaaccent" horiz-adv-x="242" unicode="ļ"/><glyph d="M59 0v714h157v-582h348v-132h-505zM494 714l-85 -142h-98l35 142h148z" glyph-name="Lcaron" horiz-adv-x="578" unicode="Ľ"/><glyph d="M50 0v714h142v-714h-142zM421 714l-85 -142h-98l35 142h148z" glyph-name="lcaron" horiz-adv-x="347" unicode="ľ"/><glyph d="M59 0v714h157v-582h348v-132h-505zM333 400v117h135v-117h-135z" glyph-name="Ldot" horiz-adv-x="578" unicode="Ŀ"/><glyph d="M50 0v714h142v-714h-142zM252 400v117h135v-117h-135z" glyph-name="ldot" horiz-adv-x="419" unicode="ŀ"/><glyph d="M59 0v214l-80 -56v112l80 56v388h157v-278l211 148v-112l-211 -148v-192h348v-132h-505z" glyph-name="Lslash" horiz-adv-x="578" unicode="Ł"/><glyph d="M50 0v286l-67 -53v102l67 53v326h142v-214l67 53v-102l-67 -53v-398h-142z" glyph-name="lslash" horiz-adv-x="242" unicode="ł"/><glyph d="M59 0v714h156l298 -479h2v479h147v-714h-157l-297 478h-2v-478h-147zM550 921l-154 -142h-99l96 142h157z" glyph-name="Nacute" horiz-adv-x="721" unicode="Ń"/><glyph d="M46 0v517h135v-72h3q26 42 68.5 64t89.5 22q107 0 148 -54t41 -159v-318h-142v292q0 65 -21 96t-70 31q-58 0 -84 -35t-26 -113v-271h-142zM477 731l-154 -142h-99l96 142h157z" glyph-name="nacute" horiz-adv-x="577" unicode="ń"/><glyph d="M59 0v714h156l298 -479h2v479h147v-714h-157l-297 478h-2v-478h-147zM290 -143v93h145v-73q0 -58 -34 -76t-101 -18v37q48 4 57 37h-67z" glyph-name="Ncommaaccent" horiz-adv-x="721" unicode="Ņ"/><glyph d="M46 0v517h135v-72h3q26 42 68.5 64t89.5 22q107 0 148 -54t41 -159v-318h-142v292q0 65 -21 96t-70 31q-58 0 -84 -35t-26 -113v-271h-142zM213 -143v93h145v-73q0 -58 -34 -76t-101 -18v37q48 4 57 37h-67z" glyph-name="ncommaaccent" horiz-adv-x="577" unicode="ņ"/><glyph d="M59 0v714h156l298 -479h2v479h147v-714h-157l-297 478h-2v-478h-147zM530 921l-110 -142h-130l-111 142h112l64 -81l65 81h110z" glyph-name="Ncaron" horiz-adv-x="721" unicode="Ň"/><glyph d="M46 0v517h135v-72h3q26 42 68.5 64t89.5 22q107 0 148 -54t41 -159v-318h-142v292q0 65 -21 96t-70 31q-58 0 -84 -35t-26 -113v-271h-142zM466 731l-110 -142h-130l-111 142h112l64 -81l65 81h110z" glyph-name="ncaron" horiz-adv-x="577" unicode="ň"/><glyph d="M185 354q0 -100 48 -169.5t146 -69.5t146 69.5t48 169.5q0 66 -18.5 119.5t-63.5 89.5t-112 36t-112 -36t-63.5 -89.5t-18.5 -119.5zM28 354q0 163 95 270t256 107t256 -107t95 -270q0 -159 -95 -265t-256 -106t-256 106t-95 265zM194 809v75h373v-75h-373z" glyph-name="Omacron" horiz-adv-x="758" unicode="Ō"/><glyph d="M169 258q0 -71 29.5 -118t95.5 -47q67 0 96.5 47t29.5 118t-29.5 118.5t-96.5 47.5q-66 0 -95.5 -47.5t-29.5 -118.5zM27 258q0 124 73 198.5t194 74.5q122 0 195 -74.5t73 -198.5q0 -123 -73 -197.5t-195 -74.5q-121 0 -194 74.5t-73 197.5zM110 619v75h373v-75h-373z" glyph-name="omacron" horiz-adv-x="589" unicode="ō"/><glyph d="M185 354q0 -100 48 -169.5t146 -69.5t146 69.5t48 169.5q0 66 -18.5 119.5t-63.5 89.5t-112 36t-112 -36t-63.5 -89.5t-18.5 -119.5zM28 354q0 163 95 270t256 107t256 -107t95 -270q0 -159 -95 -265t-256 -106t-256 106t-95 265zM217 923h65q5 -37 34 -54t65 -17 q93 0 110 71h63q-18 -146 -178 -146q-147 0 -159 146z" glyph-name="Obreve" horiz-adv-x="758" unicode="Ŏ"/><glyph d="M169 258q0 -71 29.5 -118t95.5 -47q67 0 96.5 47t29.5 118t-29.5 118.5t-96.5 47.5q-66 0 -95.5 -47.5t-29.5 -118.5zM27 258q0 124 73 198.5t194 74.5q122 0 195 -74.5t73 -198.5q0 -123 -73 -197.5t-195 -74.5q-121 0 -194 74.5t-73 197.5zM132 733h65q5 -37 34 -54 t65 -17q93 0 110 71h63q-18 -146 -178 -146q-147 0 -159 146z" glyph-name="obreve" horiz-adv-x="589" unicode="ŏ"/><glyph d="M185 354q0 -100 48 -169.5t146 -69.5t146 69.5t48 169.5q0 66 -18.5 119.5t-63.5 89.5t-112 36t-112 -36t-63.5 -89.5t-18.5 -119.5zM28 354q0 163 95 270t256 107t256 -107t95 -270q0 -159 -95 -265t-256 -106t-256 106t-95 265zM679 921l-149 -142h-99l91 142h157z M472 921l-149 -142h-99l91 142h157z" glyph-name="Ohungarumlaut" horiz-adv-x="758" unicode="Ő"/><glyph d="M169 258q0 -71 29.5 -118t95.5 -47q67 0 96.5 47t29.5 118t-29.5 118.5t-96.5 47.5q-66 0 -95.5 -47.5t-29.5 -118.5zM27 258q0 124 73 198.5t194 74.5q122 0 195 -74.5t73 -198.5q0 -123 -73 -197.5t-195 -74.5q-121 0 -194 74.5t-73 197.5zM595 731l-149 -142h-99 l91 142h157zM388 731l-149 -142h-99l91 142h157z" glyph-name="ohungarumlaut" horiz-adv-x="589" unicode="ő"/><glyph d="M528 278v170q0 67 -43.5 109t-110.5 42q-50 0 -88 -21t-59 -56.5t-31.5 -77.5t-10.5 -89q0 -99 46.5 -169.5t139.5 -70.5q72 0 114.5 45t42.5 118zM534 0v54h-2q-65 -71 -172 -71q-153 0 -242.5 107.5t-89.5 262.5q0 101 38.5 186t116.5 138.5t180 53.5q116 0 169 -68h2 v51h500v-132h-354v-153h324v-122h-324v-175h361v-132h-507z" glyph-name="OE" horiz-adv-x="1073" unicode="Œ"/><glyph d="M886 224h-369q0 -59 31.5 -95t91.5 -36q75 0 104 71h138q-25 -84 -89.5 -131t-152.5 -47q-132 0 -187 88q-26 -44 -76 -66t-107 -22q-115 0 -179 79t-64 196q0 116 70 193t184 77q126 0 178 -82q24 37 74.5 59.5t98.5 22.5q129 0 191.5 -86.5t62.5 -220.5zM279 93 q114 0 114 167q0 164 -111 164q-60 0 -86.5 -49t-26.5 -119q0 -64 26 -113.5t84 -49.5zM517 314h227q-5 110 -115 110q-52 0 -81 -31t-31 -79z" glyph-name="oe" horiz-adv-x="913" unicode="œ"/><glyph d="M216 592v-201h172q108 0 108 102q0 99 -108 99h-172zM59 0v714h385q94 0 151.5 -57t57.5 -140q0 -134 -113 -179v-2q94 -26 104 -167q0 -2 2 -37.5t3.5 -51.5t8 -41t16.5 -39h-157q-8 20 -12 48.5t-7 66.5t-6 56q-8 58 -34.5 83t-84.5 25h-157v-279h-157zM502 921 l-154 -142h-99l96 142h157z" glyph-name="Racute" horiz-adv-x="693" unicode="Ŕ"/><glyph d="M46 0v517h135v-96h2q20 49 66 79.5t99 30.5q14 0 31 -5v-132q-22 5 -51 5q-140 0 -140 -166v-233h-142zM333 731l-154 -142h-99l96 142h157z" glyph-name="racute" horiz-adv-x="373" unicode="ŕ"/><glyph d="M216 592v-201h172q108 0 108 102q0 99 -108 99h-172zM59 0v714h385q94 0 151.5 -57t57.5 -140q0 -134 -113 -179v-2q94 -26 104 -167q0 -2 2 -37.5t3.5 -51.5t8 -41t16.5 -39h-157q-8 20 -12 48.5t-7 66.5t-6 56q-8 58 -34.5 83t-84.5 25h-157v-279h-157zM288 -143v93 h145v-73q0 -58 -34 -76t-101 -18v37q48 4 57 37h-67z" glyph-name="Rcommaaccent" horiz-adv-x="693" unicode="Ŗ"/><glyph d="M46 0v517h135v-96h2q20 49 66 79.5t99 30.5q14 0 31 -5v-132q-22 5 -51 5q-140 0 -140 -166v-233h-142zM47 -143v93h145v-73q0 -58 -34 -76t-101 -18v37q48 4 57 37h-67z" glyph-name="rcommaaccent" horiz-adv-x="373" unicode="ŗ"/><glyph d="M216 592v-201h172q108 0 108 102q0 99 -108 99h-172zM59 0v714h385q94 0 151.5 -57t57.5 -140q0 -134 -113 -179v-2q94 -26 104 -167q0 -2 2 -37.5t3.5 -51.5t8 -41t16.5 -39h-157q-8 20 -12 48.5t-7 66.5t-6 56q-8 58 -34.5 83t-84.5 25h-157v-279h-157zM502 921 l-110 -142h-130l-111 142h112l64 -81l65 81h110z" glyph-name="Rcaron" horiz-adv-x="693" unicode="Ř"/><glyph d="M46 0v517h135v-96h2q20 49 66 79.5t99 30.5q14 0 31 -5v-132q-22 5 -51 5q-140 0 -140 -166v-233h-142zM380 731l-110 -142h-130l-111 142h112l64 -81l65 81h110z" glyph-name="rcaron" horiz-adv-x="374" unicode="ř"/><glyph d="M14 237h152q0 -67 44.5 -99.5t113.5 -32.5q33 0 61.5 6.5t53 27.5t24.5 55q0 19 -9.5 34t-21.5 24.5t-36.5 19t-42.5 14t-51 13t-51 13.5q-45 11 -78.5 24.5t-66.5 36.5t-50.5 59t-17.5 83q0 103 80 159.5t187 56.5q79 0 141 -22t103.5 -75.5t41.5 -132.5h-152 q-6 108 -141 108q-43 0 -75.5 -20t-32.5 -61q0 -39 35 -55.5t178 -52.5q212 -48 212 -208q0 -102 -77.5 -165.5t-219.5 -63.5q-129 0 -217.5 65t-86.5 189zM512 921l-154 -142h-99l96 142h157z" glyph-name="Sacute" horiz-adv-x="629" unicode="Ś"/><glyph d="M21 168h135q0 -43 32 -65t77 -22q36 0 64.5 16t28.5 50q0 30 -37 46t-124 34q-37 8 -61.5 17t-50.5 24.5t-39 39.5t-13 57q0 47 19 81t52.5 52t71 25.5t82.5 7.5q95 0 157.5 -38.5t70.5 -126.5h-135q-5 70 -97 70q-79 0 -79 -48q0 -11 4.5 -19.5t14 -15t19.5 -11t26.5 -9 t29 -7.5t33.5 -7.5t34 -7.5q77 -18 120.5 -49t43.5 -96q0 -94 -68 -137t-168 -43q-65 0 -116 16t-88 58.5t-39 107.5zM457 731l-154 -142h-99l96 142h157z" glyph-name="sacute" horiz-adv-x="521" unicode="ś"/><glyph d="M14 237h152q0 -67 44.5 -99.5t113.5 -32.5q33 0 61.5 6.5t53 27.5t24.5 55q0 19 -9.5 34t-21.5 24.5t-36.5 19t-42.5 14t-51 13t-51 13.5q-45 11 -78.5 24.5t-66.5 36.5t-50.5 59t-17.5 83q0 103 80 159.5t187 56.5q79 0 141 -22t103.5 -75.5t41.5 -132.5h-152 q-6 108 -141 108q-43 0 -75.5 -20t-32.5 -61q0 -39 35 -55.5t178 -52.5q212 -48 212 -208q0 -102 -77.5 -165.5t-219.5 -63.5q-129 0 -217.5 65t-86.5 189zM143 779l111 142h130l110 -142h-117l-62 81l-64 -81h-108z" glyph-name="Scircumflex" horiz-adv-x="629" unicode="Ŝ"/><glyph d="M21 168h135q0 -43 32 -65t77 -22q36 0 64.5 16t28.5 50q0 30 -37 46t-124 34q-37 8 -61.5 17t-50.5 24.5t-39 39.5t-13 57q0 47 19 81t52.5 52t71 25.5t82.5 7.5q95 0 157.5 -38.5t70.5 -126.5h-135q-5 70 -97 70q-79 0 -79 -48q0 -11 4.5 -19.5t14 -15t19.5 -11t26.5 -9 t29 -7.5t33.5 -7.5t34 -7.5q77 -18 120.5 -49t43.5 -96q0 -94 -68 -137t-168 -43q-65 0 -116 16t-88 58.5t-39 107.5zM92 589l111 142h130l110 -142h-117l-62 81l-64 -81h-108z" glyph-name="scircumflex" horiz-adv-x="521" unicode="ŝ"/><glyph d="M187 -195l21 48q42 -18 84 -18q40 0 40 34q0 32 -40 32q-22 0 -40 -7l-21 24l48 67q-41 3 -76 13q-86 23 -138 84t-51 155h152q0 -67 44.5 -99.5t113.5 -32.5q33 0 61.5 6.5t53 27.5t24.5 55q0 19 -9.5 34t-21.5 24.5t-36.5 19t-42.5 14t-51 13t-51 13.5 q-45 11 -78.5 24.5t-66.5 36.5t-50.5 59t-17.5 83q0 103 80 159.5t187 56.5q79 0 141 -22t103.5 -75.5t41.5 -132.5h-152q-6 108 -141 108q-43 0 -75.5 -20t-32.5 -61q0 -39 35 -55.5t178 -52.5q212 -48 212 -208q0 -75 -43 -130t-126 -82q-49 -15 -120 -17l-26 -35l1 -2 q17 7 35 7q37 0 64.5 -18t27.5 -52q0 -54 -33.5 -77t-83.5 -23q-64 0 -124 22z" glyph-name="Scedilla" horiz-adv-x="629" unicode="Ş"/><glyph d="M136 -195l21 48q42 -18 84 -18q40 0 40 34q0 32 -40 32q-22 0 -40 -7l-21 24l50 69q-21 2 -54 8q-67 14 -109.5 57.5t-45.5 115.5h135q0 -43 32 -65t77 -22q36 0 64.5 16t28.5 50q0 30 -37 46t-124 34q-37 8 -61.5 17t-50.5 24.5t-39 39.5t-13 57q0 47 19 81t52.5 52 t71 25.5t82.5 7.5q95 0 157.5 -38.5t70.5 -126.5h-135q-5 70 -97 70q-79 0 -79 -48q0 -11 4.5 -19.5t14 -15t19.5 -11t26.5 -9t29 -7.5t33.5 -7.5t34 -7.5q77 -18 120.5 -49t43.5 -96q0 -72 -41.5 -114.5t-108.5 -56.5q-36 -8 -73 -9l-28 -38l1 -2q17 7 35 7q37 0 64.5 -18 t27.5 -52q0 -54 -33.5 -77t-83.5 -23q-64 0 -124 22z" glyph-name="scedilla" horiz-adv-x="521" unicode="ş"/><glyph d="M14 237h152q0 -67 44.5 -99.5t113.5 -32.5q33 0 61.5 6.5t53 27.5t24.5 55q0 19 -9.5 34t-21.5 24.5t-36.5 19t-42.5 14t-51 13t-51 13.5q-45 11 -78.5 24.5t-66.5 36.5t-50.5 59t-17.5 83q0 103 80 159.5t187 56.5q79 0 141 -22t103.5 -75.5t41.5 -132.5h-152 q-6 108 -141 108q-43 0 -75.5 -20t-32.5 -61q0 -39 35 -55.5t178 -52.5q212 -48 212 -208q0 -102 -77.5 -165.5t-219.5 -63.5q-129 0 -217.5 65t-86.5 189zM493 921l-110 -142h-130l-111 142h112l64 -81l65 81h110z" glyph-name="Scaron" horiz-adv-x="629" unicode="Š"/><glyph d="M21 168h135q0 -43 32 -65t77 -22q36 0 64.5 16t28.5 50q0 30 -37 46t-124 34q-37 8 -61.5 17t-50.5 24.5t-39 39.5t-13 57q0 47 19 81t52.5 52t71 25.5t82.5 7.5q95 0 157.5 -38.5t70.5 -126.5h-135q-5 70 -97 70q-79 0 -79 -48q0 -11 4.5 -19.5t14 -15t19.5 -11t26.5 -9 t29 -7.5t33.5 -7.5t34 -7.5q77 -18 120.5 -49t43.5 -96q0 -94 -68 -137t-168 -43q-65 0 -116 16t-88 58.5t-39 107.5zM441 731l-110 -142h-130l-111 142h112l64 -81l65 81h110z" glyph-name="scaron" horiz-adv-x="521" unicode="š"/><glyph d="M228 0v582h-214v132h585v-132h-214v-582h-157zM233 -143v93h145v-73q0 -58 -34 -76t-101 -18v37q48 4 57 37h-67z" glyph-name="Tcommaaccent" horiz-adv-x="613" unicode="Ţ"/><glyph d="M226 672v-155h104v-95h-104v-256q0 -36 12 -48t48 -12q27 0 44 4v-111q-30 -5 -83 -5q-36 0 -63 5t-51 17.5t-36.5 37.5t-12.5 63v305h-86v95h86v155h142zM132 -143v93h145v-73q0 -58 -34 -76t-101 -18v37q48 4 57 37h-67z" glyph-name="tcommaaccent" horiz-adv-x="336" unicode="ţ"/><glyph d="M228 0v582h-214v132h585v-132h-214v-582h-157zM481 921l-110 -142h-130l-111 142h112l64 -81l65 81h110z" glyph-name="Tcaron" horiz-adv-x="613" unicode="Ť"/><glyph d="M502 714l-85 -142h-98l35 142h148zM226 672v-155h104v-95h-104v-256q0 -36 12 -48t48 -12q27 0 44 4v-111q-30 -5 -83 -5q-36 0 -63 5t-51 17.5t-36.5 37.5t-12.5 63v305h-86v95h86v155h142z" glyph-name="tcaron" horiz-adv-x="428" unicode="ť"/><glyph d="M73 392v75h155v115h-214v132h585v-132h-214v-115h161v-75h-161v-392h-157v392h-155z" glyph-name="Tbar" horiz-adv-x="613" unicode="Ŧ"/><glyph d="M-16 271v75h100v76h-86v95h86v155h142v-155h104v-95h-104v-76h112v-75h-112v-105q0 -36 12 -48t48 -12q27 0 44 4v-111q-30 -5 -83 -5q-36 0 -63 5t-51 17.5t-36.5 37.5t-12.5 63v154h-100z" glyph-name="tbar" horiz-adv-x="336" unicode="ŧ"/><glyph d="M665 714v-444q0 -142 -79.5 -214.5t-225.5 -72.5q-147 0 -225.5 71.5t-78.5 215.5v444h157v-444q0 -71 30.5 -113t116.5 -42q82 0 115 36.5t33 118.5v444h157zM478 911h69q-11 -53 -34 -82t-78 -32q-35 0 -81 17q-51 17 -68 17q-33 0 -45 -42h-61q6 48 37 84.5t80 37.5 q29 0 72 -18q49 -17 65 -17q34 0 44 35z" glyph-name="Utilde" horiz-adv-x="721" unicode="Ũ"/><glyph d="M531 517v-517h-135v72h-3q-26 -42 -68.5 -64t-89.5 -22q-107 0 -148 54t-41 159v318h142v-292q0 -65 21 -96t70 -31q58 0 84 35t26 113v271h142zM405 721h69q-11 -53 -34 -82t-78 -32q-35 0 -81 17q-51 17 -68 17q-33 0 -45 -42h-61q6 48 37 84.5t80 37.5q29 0 72 -18 q49 -17 65 -17q34 0 44 35z" glyph-name="utilde" horiz-adv-x="577" unicode="ũ"/><glyph d="M665 714v-444q0 -142 -79.5 -214.5t-225.5 -72.5q-147 0 -225.5 71.5t-78.5 215.5v444h157v-444q0 -71 30.5 -113t116.5 -42q82 0 115 36.5t33 118.5v444h157zM176 809v75h373v-75h-373z" glyph-name="Umacron" horiz-adv-x="721" unicode="Ū"/><glyph d="M531 517v-517h-135v72h-3q-26 -42 -68.5 -64t-89.5 -22q-107 0 -148 54t-41 159v318h142v-292q0 -65 21 -96t70 -31q58 0 84 35t26 113v271h142zM105 619v75h373v-75h-373z" glyph-name="umacron" horiz-adv-x="577" unicode="ū"/><glyph d="M665 714v-444q0 -142 -79.5 -214.5t-225.5 -72.5q-147 0 -225.5 71.5t-78.5 215.5v444h157v-444q0 -71 30.5 -113t116.5 -42q82 0 115 36.5t33 118.5v444h157zM192 923h65q5 -37 34 -54t65 -17q93 0 110 71h63q-18 -146 -178 -146q-147 0 -159 146z" glyph-name="Ubreve" horiz-adv-x="721" unicode="Ŭ"/><glyph d="M531 517v-517h-135v72h-3q-26 -42 -68.5 -64t-89.5 -22q-107 0 -148 54t-41 159v318h142v-292q0 -65 21 -96t70 -31q58 0 84 35t26 113v271h142zM123 733h65q5 -37 34 -54t65 -17q93 0 110 71h63q-18 -146 -178 -146q-147 0 -159 146z" glyph-name="ubreve" horiz-adv-x="577" unicode="ŭ"/><glyph d="M665 714v-444q0 -142 -79.5 -214.5t-225.5 -72.5q-147 0 -225.5 71.5t-78.5 215.5v444h157v-444q0 -71 30.5 -113t116.5 -42q82 0 115 36.5t33 118.5v444h157zM237 864q0 51 35.5 86.5t86.5 35.5t87 -35.5t36 -86.5t-36 -86t-87 -35t-86.5 35t-35.5 86zM296 864 q0 -30 17 -49t46 -19t46.5 19t17.5 49t-17.5 49t-46.5 19t-46 -19t-17 -49z" glyph-name="Uring" horiz-adv-x="721" unicode="Ů"/><glyph d="M531 517v-517h-135v72h-3q-26 -42 -68.5 -64t-89.5 -22q-107 0 -148 54t-41 159v318h142v-292q0 -65 21 -96t70 -31q58 0 84 35t26 113v271h142zM168 684q0 51 35.5 86.5t86.5 35.5t87 -35.5t36 -86.5t-36 -86t-87 -35t-86.5 35t-35.5 86zM227 684q0 -30 17 -49t46 -19 t46.5 19t17.5 49t-17.5 49t-46.5 19t-46 -19t-17 -49z" glyph-name="uring" horiz-adv-x="577" unicode="ů"/><glyph d="M665 714v-444q0 -142 -79.5 -214.5t-225.5 -72.5q-147 0 -225.5 71.5t-78.5 215.5v444h157v-444q0 -71 30.5 -113t116.5 -42q82 0 115 36.5t33 118.5v444h157zM657 921l-149 -142h-99l91 142h157zM450 921l-149 -142h-99l91 142h157z" glyph-name="Uhungarumlaut" horiz-adv-x="721" unicode="Ű"/><glyph d="M531 517v-517h-135v72h-3q-26 -42 -68.5 -64t-89.5 -22q-107 0 -148 54t-41 159v318h142v-292q0 -65 21 -96t70 -31q58 0 84 35t26 113v271h142zM587 731l-149 -142h-99l91 142h157zM380 731l-149 -142h-99l91 142h157z" glyph-name="uhungarumlaut" horiz-adv-x="577" unicode="ű"/><glyph d="M433 -127l48 -22q-54 -68 -133 -68q-37 0 -63 13q-19 9 -31.5 28.5t-12.5 40.5q1 25 9 41.5t40 48.5q7 6 38 29q-123 8 -193 69q-79 70 -79 217v444h157v-444q0 -71 30.5 -113t116.5 -42q82 0 115 36.5t33 118.5v444h157v-444q0 -146 -81 -216q-69 -60 -181 -69 q-37 -35 -49 -54q-17 -28 -17 -48q0 -19 11.5 -29.5t27.5 -10.5q28 0 57 30z" glyph-name="Uogonek" horiz-adv-x="721" unicode="Ų"/><glyph d="M467 -127l44 -22q-50 -68 -121 -68q-33 0 -58 13q-17 9 -28.5 28.5t-11.5 40.5q0 27 15 53q22 39 89 82v72h-3q-26 -42 -68.5 -64t-89.5 -22q-107 0 -148 54t-41 159v318h142v-292q0 -65 21 -96t70 -31q58 0 84 35t26 113v271h142v-517h-76q-75 -72 -75 -117 q0 -19 10 -29.5t25 -10.5q26 0 52 30z" glyph-name="uogonek" horiz-adv-x="577" unicode="ų"/><glyph d="M931 714l-192 -714h-156l-121 486h-2l-119 -486h-159l-189 714h157l113 -486h2l124 486h147l122 -492h2l117 492h154zM291 779l111 142h130l110 -142h-117l-62 81l-64 -81h-108z" glyph-name="Wcircumflex" horiz-adv-x="924" unicode="Ŵ"/><glyph d="M804 517l-163 -517h-146l-92 347h-2l-88 -347h-147l-164 517h150l95 -351h2l86 351h138l88 -350h2l95 350h146zM231 589l111 142h130l110 -142h-117l-62 81l-64 -81h-108z" glyph-name="wcircumflex" horiz-adv-x="806" unicode="ŵ"/><glyph d="M244 0v278l-263 436h177l167 -282l166 282h175l-265 -440v-274h-157zM154 779l111 142h130l110 -142h-117l-62 81l-64 -81h-108z" glyph-name="Ycircumflex" horiz-adv-x="647" unicode="Ŷ"/><glyph d="M528 517l-216 -582q-23 -63 -64.5 -90t-113.5 -27q-39 0 -87 5v117q54 -6 83 -5q27 3 41 21.5t14 43.5q0 17 -6 32l-182 485h152l117 -354h2l113 354h147zM95 589l111 142h130l110 -142h-117l-62 81l-64 -81h-108z" glyph-name="ycircumflex" horiz-adv-x="525" unicode="ŷ"/><glyph d="M244 0v278l-263 436h177l167 -282l166 282h175l-265 -440v-274h-157zM155 788v117h135v-117h-135zM361 788v117h135v-117h-135z" glyph-name="Ydieresis" horiz-adv-x="647" unicode="Ÿ"/><glyph d="M26 0v124l383 458h-353v132h562v-124l-383 -458h393v-132h-602zM524 921l-154 -142h-99l96 142h157z" glyph-name="Zacute" horiz-adv-x="652" unicode="Ź"/><glyph d="M17 0v107l269 303h-249v107h436v-107l-269 -303h288v-107h-475zM455 731l-154 -142h-99l96 142h157z" glyph-name="zacute" horiz-adv-x="504" unicode="ź"/><glyph d="M26 0v124l383 458h-353v132h562v-124l-383 -458h393v-132h-602zM270 788v117h135v-117h-135z" glyph-name="Zdotaccent" horiz-adv-x="652" unicode="Ż"/><glyph d="M17 0v107l269 303h-249v107h436v-107l-269 -303h288v-107h-475zM192 598v117h135v-117h-135z" glyph-name="zdotaccent" horiz-adv-x="504" unicode="ż"/><glyph d="M26 0v124l383 458h-353v132h562v-124l-383 -458h393v-132h-602zM510 921l-110 -142h-130l-111 142h112l64 -81l65 81h110z" glyph-name="Zcaron" horiz-adv-x="652" unicode="Ž"/><glyph d="M17 0v107l269 303h-249v107h436v-107l-269 -303h288v-107h-475zM433 731l-110 -142h-130l-111 142h112l64 -81l65 81h110z" glyph-name="zcaron" horiz-adv-x="504" unicode="ž"/><glyph d="M-13 -167l19 107q19 -3 40 -3q36 -1 50.5 16t21.5 55l63 329h-92l18 95h91l24 127q18 95 63.5 133.5t142.5 38.5q43 0 75 -7l-18 -107q-15 7 -40 7q-38 0 -54 -14t-22 -48l-25 -130h98l-16 -95h-100l-56 -310q-19 -107 -61.5 -152t-147.5 -45q-46 0 -74 3z" glyph-name="florin" horiz-adv-x="540" unicode="ƒ"/><glyph d="M14 237h152q0 -67 44.5 -99.5t113.5 -32.5q33 0 61.5 6.5t53 27.5t24.5 55q0 19 -9.5 34t-21.5 24.5t-36.5 19t-42.5 14t-51 13t-51 13.5q-45 11 -78.5 24.5t-66.5 36.5t-50.5 59t-17.5 83q0 103 80 159.5t187 56.5q79 0 141 -22t103.5 -75.5t41.5 -132.5h-152 q-6 108 -141 108q-43 0 -75.5 -20t-32.5 -61q0 -39 35 -55.5t178 -52.5q212 -48 212 -208q0 -102 -77.5 -165.5t-219.5 -63.5q-129 0 -217.5 65t-86.5 189zM239 -143v93h145v-73q0 -58 -34 -76t-101 -18v37q48 4 57 37h-67z" glyph-name="Scommaaccent" horiz-adv-x="629" unicode="Ș"/><glyph d="M21 168h135q0 -43 32 -65t77 -22q36 0 64.5 16t28.5 50q0 30 -37 46t-124 34q-37 8 -61.5 17t-50.5 24.5t-39 39.5t-13 57q0 47 19 81t52.5 52t71 25.5t82.5 7.5q95 0 157.5 -38.5t70.5 -126.5h-135q-5 70 -97 70q-79 0 -79 -48q0 -11 4.5 -19.5t14 -15t19.5 -11t26.5 -9 t29 -7.5t33.5 -7.5t34 -7.5q77 -18 120.5 -49t43.5 -96q0 -94 -68 -137t-168 -43q-65 0 -116 16t-88 58.5t-39 107.5zM191 -143v93h145v-73q0 -58 -34 -76t-101 -18v37q48 4 57 37h-67z" glyph-name="scommaaccent" horiz-adv-x="521" unicode="ș"/><glyph d="M217 0v582h-214v132h585v-132h-214v-582h-157zM222 -143v93h145v-73q0 -58 -34 -76t-101 -18v37q48 4 57 37h-67z" glyph-name="uni021A" horiz-adv-x="591" unicode="Ț"/><glyph d="M226 672v-155h104v-95h-104v-256q0 -36 12 -48t48 -12q27 0 44 4v-111q-30 -5 -83 -5q-36 0 -63 5t-51 17.5t-36.5 37.5t-12.5 63v305h-86v95h86v155h142zM132 -143v93h145v-73q0 -58 -34 -76t-101 -18v37q48 4 57 37h-67z" glyph-name="uni021B" horiz-adv-x="336" unicode="ț"/><glyph d="M-54 589l111 142h130l110 -142h-117l-62 81l-64 -81h-108z" glyph-name="circumflex" unicode="ˆ"/><glyph d="M297 731l-110 -142h-130l-111 142h112l64 -81l65 81h110z" glyph-name="caron" unicode="ˇ"/><glyph d="M-65 619v75h373v-75h-373z" glyph-name="uni02C9" unicode="ˉ"/><glyph d="M-47 733h65q5 -37 34 -54t65 -17q93 0 110 71h63q-18 -146 -178 -146q-147 0 -159 146z" glyph-name="breve" unicode="˘"/><glyph d="M54 598v117h135v-117h-135z" glyph-name="dotaccent" unicode="˙"/><glyph d="M-1 684q0 51 35.5 86.5t86.5 35.5t87 -35.5t36 -86.5t-36 -86t-87 -35t-86.5 35t-35.5 86zM58 684q0 -30 17 -49t46 -19t46.5 19t17.5 49t-17.5 49t-46.5 19t-46 -19t-17 -49z" glyph-name="ring" unicode="˚"/><glyph d="M193 -127l48 -22q-54 -68 -133 -68q-37 0 -63 13q-19 9 -31.5 28.5t-12.5 40.5q0 27 16 53q24 38 98 82h65q-83 -74 -83 -117q0 -19 11.5 -29.5t27.5 -10.5q28 0 57 30z" glyph-name="ogonek" unicode="˛"/><glyph d="M236 721h69q-11 -53 -34 -82t-78 -32q-35 0 -81 17q-51 17 -68 17q-33 0 -45 -42h-61q6 48 37 84.5t80 37.5q29 0 72 -18q49 -17 65 -17q34 0 44 35z" glyph-name="tilde" unicode="˜"/><glyph d="M391 731l-149 -142h-99l91 142h157zM184 731l-149 -142h-99l91 142h157z" glyph-name="hungarumlaut" unicode="˝"/><glyph d="M496 124l-162 437l-151 -437h313zM684 0h-682l261 712h143z" glyph-name="uni0394" horiz-adv-x="686" unicode="Δ"/><glyph d="M704 411q0 -92 -47 -167t-132 -94v-32h178v-118h-287v204q69 14 106 67.5t37 126.5q0 84 -51 141.5t-134 57.5q-85 0 -136.5 -58.5t-51.5 -143.5q0 -74 35.5 -124t105.5 -67v-204h-287v118h178v32q-84 23 -131 95.5t-47 163.5q0 139 96 225.5t237 86.5t236 -85.5 t95 -224.5z" glyph-name="uni03A9" horiz-adv-x="752" unicode="Ω"/><glyph d="M531 517v-517h-135v72h-3q-26 -40 -64 -63t-66 -23q-53 0 -75 24v-192h-142v699h142v-292q0 -65 21 -96t70 -31q58 0 84 35t26 113v271h142z" glyph-name="uni03BC" horiz-adv-x="577" unicode="μ"/><glyph d="M577 112v-95q-52 -25 -96 -25q-65 0 -89.5 35.5t-24.5 102.5v241h-176v-371h-129v371h-70v118h583v-118h-80v-205q0 -21 1 -31t10 -22t28 -12t43 11z" glyph-name="pi" horiz-adv-x="593" unicode="π"/><glyph d="M-8 212v122h500v-122h-500z" glyph-name="endash" horiz-adv-x="484" unicode="–"/><glyph d="M122 212v122h740v-122h-740z" glyph-name="emdash" horiz-adv-x="984" unicode="—"/><glyph d="M233 547v-154h-142v153q-2 65 38.5 112.5t103.5 55.5v-66q-66 -22 -66 -101h66z" glyph-name="quoteleft" horiz-adv-x="323" unicode="‘"/><glyph d="M90 560v154h142v-153q2 -65 -38.5 -112.5t-103.5 -55.5v66q66 22 66 101h-66z" glyph-name="quoteright" horiz-adv-x="323" unicode="’"/><glyph d="M90 0v154h142v-153q2 -65 -38.5 -112.5t-103.5 -55.5v66q66 22 66 101h-66z" glyph-name="quotesinglbase" horiz-adv-x="323" unicode="‚"/><glyph d="M233 547v-154h-142v153q-2 65 38.5 112.5t103.5 55.5v-66q-66 -22 -66 -101h66zM446 547v-154h-142v153q-2 65 38.5 112.5t103.5 55.5v-66q-66 -22 -66 -101h66z" glyph-name="quotedblleft" horiz-adv-x="536" unicode="“"/><glyph d="M90 560v154h142v-153q2 -65 -38.5 -112.5t-103.5 -55.5v66q66 22 66 101h-66zM303 560v154h142v-153q2 -65 -38.5 -112.5t-103.5 -55.5v66q66 22 66 101h-66z" glyph-name="quotedblright" horiz-adv-x="536" unicode="”"/><glyph d="M90 0v154h142v-153q2 -65 -38.5 -112.5t-103.5 -55.5v66q66 22 66 101h-66zM303 0v154h142v-153q2 -65 -38.5 -112.5t-103.5 -55.5v66q66 22 66 101h-66z" glyph-name="quotedblbase" horiz-adv-x="536" unicode="„"/><glyph d="M202 -166v566h-186v117h186v197h135v-197h187v-117h-187v-566h-135z" glyph-name="dagger" horiz-adv-x="540" unicode="†"/><glyph d="M202 -166v193h-186v117h186v256h-186v117h186v197h135v-197h187v-117h-187v-256h187v-117h-187v-193h-135z" glyph-name="daggerdbl" horiz-adv-x="540" unicode="‡"/><glyph d="M64 357q0 74 52 126t126 52t126.5 -52t52.5 -126t-52.5 -126.5t-126.5 -52.5t-126 52.5t-52 126.5z" glyph-name="bullet" horiz-adv-x="485" unicode="•"/><glyph d="M746 0v154h157v-154h-157zM413 0v154h157v-154h-157zM80 0v154h157v-154h-157z" glyph-name="ellipsis" horiz-adv-x="984" unicode="…"/><glyph d="M432 155q0 76 36.5 125.5t110.5 49.5q145 0 145 -174q0 -77 -36 -123.5t-110 -46.5q-69 0 -107.5 46.5t-38.5 122.5zM142 -22l414 744h85l-412 -744h-87zM151 556q0 -36 2.5 -58.5t16 -42.5t37.5 -20q14 0 24 4t16 13.5t9.5 17.5t5 23.5t1.5 23.5v25q0 25 -1 39.5 t-6 32.5t-16.5 26.5t-30.5 8.5q-20 0 -32.5 -8.5t-17.5 -24.5t-6.5 -28.5t-1.5 -31.5zM61 539q0 76 36.5 125.5t110.5 49.5q145 0 145 -174q0 -77 -36 -123.5t-110 -46.5q-69 0 -107.5 46.5t-38.5 122.5zM868 172q0 -36 2.5 -58.5t16 -42.5t37.5 -20q14 0 24 4t16 13.5 t9.5 17.5t5 23.5t1.5 23.5v25q0 25 -1 39.5t-6 32.5t-16.5 26.5t-30.5 8.5q-20 0 -32.5 -8.5t-17.5 -24.5t-6.5 -28.5t-1.5 -31.5zM778 155q0 76 36.5 125.5t110.5 49.5q145 0 145 -174q0 -77 -36 -123.5t-110 -46.5q-69 0 -107.5 46.5t-38.5 122.5zM522 172 q0 -36 2.5 -58.5t16 -42.5t37.5 -20q14 0 24 4t16 13.5t9.5 17.5t5 23.5t1.5 23.5v25q0 25 -1 39.5t-6 32.5t-16.5 26.5t-30.5 8.5q-20 0 -32.5 -8.5t-17.5 -24.5t-6.5 -28.5t-1.5 -31.5z" glyph-name="perthousand" horiz-adv-x="1131" unicode="‰"/><glyph d="M191 80l-157 125v135l157 123v-120l-90 -71l90 -72v-120z" glyph-name="guilsinglleft" horiz-adv-x="225" unicode="‹"/><glyph d="M34 463l157 -123v-135l-157 -125v120l90 72l-90 71v120z" glyph-name="guilsinglright" horiz-adv-x="225" unicode="›"/><glyph d="M-174 -22l414 744h85l-412 -744h-87z" glyph-name="fraction" horiz-adv-x="151" unicode="⁄"/><glyph d="M568 672l-61 -125q-71 45 -131 45q-105 0 -140 -137h244l-31 -72h-224l-1 -42h213l-31 -72h-174q32 -158 148 -158q74 0 154 63l-1 -151q-67 -40 -154 -40q-127 0 -203 82q-70 73 -91 204h-77l31 72h40v26q0 13 1 16h-73l31 72h51q24 120 99 191q79 76 198 76 q84 0 182 -50z" glyph-name="Euro" horiz-adv-x="540" unicode="€"/><glyph d="M448 53q-80 -67 -172 -67q-77 0 -120.5 41t-43.5 106v41l-55 -48h-2l-49 75l105 86v238q0 84 51 140t129 56q69 0 110 -41t41 -109q0 -75 -47 -149t-145 -157v-110q0 -35 17.5 -51.5t43.5 -16.5q38 0 88 38h2zM329 563q0 28 -11 47t-28 19t-28.5 -21.5t-11.5 -56.5v-169 q79 83 79 181z" glyph-name="afii61289" horiz-adv-x="484" unicode="ℓ"/><glyph d="M390 714v-80h-117v-332h-102v332h-117v80h336zM920 714v-412h-96v292h-2l-106 -292h-69l-106 292h-2v-292h-96v412h136l103 -271l103 271h135z" glyph-name="trademark" horiz-adv-x="984" unicode="™"/><glyph d="M704 411q0 -92 -47 -167t-132 -94v-32h178v-118h-287v204q69 14 106 67.5t37 126.5q0 84 -51 141.5t-134 57.5q-85 0 -136.5 -58.5t-51.5 -143.5q0 -74 35.5 -124t105.5 -67v-204h-287v118h178v32q-84 23 -131 95.5t-47 163.5q0 139 96 225.5t237 86.5t236 -85.5 t95 -224.5z" glyph-name="Omega" horiz-adv-x="752" unicode="Ω"/><glyph d="M553 259h-404v-181q59 -59 145 -59q122 0 193 120l35 -21q-46 -72 -98 -103.5t-130 -31.5q-115 0 -186.5 79t-71.5 197q0 119 71 197.5t187 78.5q115 0 186.5 -77t72.5 -199zM149 295h291v145q-63 60 -147 60t-144 -60v-145z" glyph-name="estimated" horiz-adv-x="584" unicode="℮"/><glyph d="M521 359q0 -56 -6 -105t-24 -99.5t-45.5 -86.5t-74.5 -58.5t-108 -22.5q-102 0 -165.5 65t-63.5 167q0 97 62 160.5t158 63.5q71 0 134 -48v15q0 36 -6.5 70t-21 67t-43 53t-66.5 20q-59 0 -121 -53l-70 80q88 74 185 74q60 0 108 -20.5t79 -55t51.5 -82t29 -98 t8.5 -106.5zM387 268v23q-50 55 -112 55q-54 0 -84 -39t-30 -95q0 -53 26.5 -90.5t77.5 -37.5q42 0 71.5 31.5t41 72t9.5 80.5z" glyph-name="partialdiff" horiz-adv-x="556" unicode="∂"/><glyph d="M496 124l-162 437l-151 -437h313zM684 0h-682l261 712h143z" glyph-name="Delta" horiz-adv-x="686" unicode="∆"/><glyph d="M685 -214h-132v874h-373v-874h-133v1000h638v-1000z" glyph-name="product" horiz-adv-x="733" unicode="∏"/><glyph d="M638 -214h-619v110l295 396l-283 384v110h595v-126h-418l263 -367l-281 -381h448v-126z" glyph-name="summation" horiz-adv-x="657" unicode="∑"/><glyph d="M40 199v107h505v-107h-505z" glyph-name="minus" horiz-adv-x="584" unicode="−"/><glyph d="M-174 -22l414 744h85l-412 -744h-87z" glyph-name="uni2215" horiz-adv-x="151" unicode="∕"/><glyph d="M47 287q0 35 25.5 60t59.5 25t59 -25t25 -60q0 -33 -25 -58.5t-58 -25.5q-35 0 -60.5 25t-25.5 59z" glyph-name="uni2219" horiz-adv-x="262" unicode="∙"/><glyph d="M572 786l-218 -1000h-122l-147 303l-53 -26l-49 105l171 78l117 -255l162 795h139z" glyph-name="radical" horiz-adv-x="554" unicode="√"/><glyph d="M795 269q0 -87 -49.5 -143.5t-134.5 -56.5q-57 0 -103.5 31t-91.5 85q-50 -57 -91 -85.5t-101 -28.5q-85 0 -136 55.5t-51 141.5q0 85 49.5 140t133.5 55q62 0 104.5 -30.5t91.5 -91.5q44 58 89.5 90t106.5 32q84 0 133.5 -55t49.5 -139zM686 266q0 36 -21 59.5t-57 23.5 q-52 0 -125 -85q69 -80 128 -80q35 0 55 23.5t20 58.5zM348 264q-72 84 -127 84q-34 0 -54.5 -24t-20.5 -58q0 -36 21 -58.5t56 -22.5q63 0 125 79z" glyph-name="infinity" horiz-adv-x="832" unicode="∞"/><glyph d="M511 702q0 -28 -17 -46t-44 -18q-29 0 -42 22t-19 43.5t-18 21.5q-19 0 -19 -37q0 -28 3 -81t3 -80v-413v-69q0 -41 -3 -73t-13 -68.5t-27.5 -60.5t-49 -40t-74.5 -16q-44 0 -83 24t-39 65q0 25 18.5 41t44.5 16q22 0 35 -13.5t16 -30t8.5 -30t15.5 -13.5q19 0 19 35 q0 24 -3 72t-3 72v465v45t1.5 44.5t4.5 45.5t9 41t14.5 39t21.5 31.5t30 26t40.5 15t51.5 6.5q42 0 80 -22t38 -60z" glyph-name="integral" horiz-adv-x="612" unicode="∫"/><glyph d="M564 474q-12 -129 -96 -173q-32 -17 -64 -17q-37 0 -124.5 31.5t-122.5 31.5q-25 0 -40 -18t-18 -43h-85q7 83 46.5 134t118.5 51q41 0 121 -28t120 -28q51 0 58 59h86zM563 248q-7 -81 -44.5 -136.5t-111.5 -55.5q-39 0 -129 32t-122 32q-24 0 -39 -17.5t-19 -43.5h-85 q4 76 44 133t112 57q38 0 124.5 -30.5t126.5 -30.5q47 0 57 60h86z" glyph-name="approxequal" horiz-adv-x="577" unicode="≈"/><glyph d="M555 85h-286l-78 -157l-114 57l51 100h-106v130h170l52 103h-222v129h286l79 157l113 -57l-50 -100h105v-129h-169l-52 -103h221v-130z" glyph-name="notequal" horiz-adv-x="577" unicode="≠"/><glyph d="M555 114l-533 168v129l533 165v-135l-354 -94l354 -98v-135zM555 -43h-533v129h533v-129z" glyph-name="lessequal" horiz-adv-x="577" unicode="≤"/><glyph d="M555 282l-533 -168v135l354 98l-354 94v135l533 -165v-129zM555 -43h-533v129h533v-129z" glyph-name="greaterequal" horiz-adv-x="577" unicode="≥"/><glyph d="M533 356l-186 -391h-119l-184 391l185 391h118zM400 356l-112 261l-112 -261l112 -262z" glyph-name="lozenge" horiz-adv-x="577" unicode="◊"/><glyph d="M-27 -178v117q11 -4 31 -4q55 0 55 46v536h142v-543q0 -83 -39 -119.5t-143 -36.5q-26 0 -46 4z" glyph-name="dotlessj" horiz-adv-x="262" unicode=""/><glyph d="M98 779l-154 142h157l96 -142h-99z" glyph-name="grave.cap" unicode=""/><glyph d="M300 921l-154 -142h-99l96 142h157z" glyph-name="acute.cap" unicode=""/><glyph d="M-54 779l111 142h130l110 -142h-117l-62 81l-64 -81h-108z" glyph-name="circumflex.cap" unicode=""/><glyph d="M297 921l-110 -142h-130l-111 142h112l64 -81l65 81h110z" glyph-name="caron.cap" unicode=""/><glyph d="M236 911h69q-11 -53 -34 -82t-78 -32q-35 0 -81 17q-51 17 -68 17q-33 0 -45 -42h-61q6 48 37 84.5t80 37.5q29 0 72 -18q49 -17 65 -17q34 0 44 35z" glyph-name="tilde.cap" unicode=""/><glyph d="M-49 788v117h135v-117h-135zM157 788v117h135v-117h-135z" glyph-name="dieresis.cap" unicode=""/><glyph d="M-65 809v75h373v-75h-373z" glyph-name="macron.cap" unicode=""/><glyph d="M-47 923h65q5 -37 34 -54t65 -17q93 0 110 71h63q-18 -146 -178 -146q-147 0 -159 146z" glyph-name="breve.cap" unicode=""/><glyph d="M-1 866q0 51 35.5 86.5t86.5 35.5t87 -35.5t36 -86.5t-36 -86t-87 -35t-86.5 35t-35.5 86zM58 866q0 -30 17 -49t46 -19t46.5 19t17.5 49t-17.5 49t-46.5 19t-46 -19t-17 -49z" glyph-name="ring.cap" unicode=""/><glyph d="M391 921l-149 -142h-99l91 142h157zM184 921l-149 -142h-99l91 142h157z" glyph-name="hungarumlaut.cap" unicode=""/><glyph d="M54 788v117h135v-117h-135z" glyph-name="dotaccent.cap" unicode=""/><glyph d="M260 714l-85 -142h-98l35 142h148z" glyph-name="caron.alt" unicode=""/><glyph d="M67 -143v93h145v-73q0 -58 -34 -76t-101 -18v37q48 4 57 37h-67z" glyph-name="commaaccent" horiz-adv-x="262" unicode=""/><glyph d="M206 714v-93h-145v73q0 58 34 76t101 18v-37q-48 -4 -57 -37h67z" glyph-name="commaaccent.alt" horiz-adv-x="262" unicode=""/><glyph d="M270 117h-56v67h56v-67zM263 234h-46l-2 17q0 56 13 81q15 28 46 59q31 29 40.5 46t9.5 37q0 36 -22.5 60.5t-53.5 24.5q-71 0 -82 -95l-50 8q7 69 43 103t92 34q54 0 89 -36t35 -95q0 -34 -13 -60t-50 -60q-37 -33 -43 -52q-6 -20 -6 -72zM42 50h412v617h-412v-617z M-8 718h512v-718h-512v718z" glyph-name="uniF8FF" horiz-adv-x="496" unicode=""/></font>
</defs>
</svg>
